<?xml version="1.0" encoding="utf-8"?>
<!-- Generator: Adobe Illustrator 21.1.0, SVG Export Plug-In . SVG Version: 6.00 Build 0)  -->
<svg version="1.1"
	 id="svg2" inkscape:version="0.91 r13725" sodipodi:docname="elpasslogo.svg" xmlns:cc="http://creativecommons.org/ns#" xmlns:dc="http://purl.org/dc/elements/1.1/" xmlns:inkscape="http://www.inkscape.org/namespaces/inkscape" xmlns:rdf="http://www.w3.org/1999/02/22-rdf-syntax-ns#" xmlns:sodipodi="http://sodipodi.sourceforge.net/DTD/sodipodi-0.dtd" xmlns:svg="http://www.w3.org/2000/svg"
	 xmlns="http://www.w3.org/2000/svg" xmlns:xlink="http://www.w3.org/1999/xlink" x="0px" y="0px" viewBox="0 0 248.7 364.5"
	 style="enable-background:new 0 0 248.7 364.5;" xml:space="preserve">
<style type="text/css">
	.st0{fill:#6AAC30;}
	.st1{fill:#55544E;}
	.st2{fill:#FFFFFF;}
	.st3{fill:#1F1D13;}
</style>
<sodipodi:namedview  bordercolor="#666666" borderopacity="1.0" id="base" inkscape:current-layer="layer1" inkscape:cx="219.82759" inkscape:cy="623.44828" inkscape:document-units="px" inkscape:pageopacity="0.0" inkscape:pageshadow="2" inkscape:window-height="1018" inkscape:window-maximized="1" inkscape:window-width="1920" inkscape:window-x="-8" inkscape:window-y="-8" inkscape:zoom="1.16" pagecolor="#ffffff" showgrid="false">
	</sodipodi:namedview>
<g id="layer1" inkscape:groupmode="layer" inkscape:label="Layer 1">
	<path id="path3341" inkscape:connector-curvature="0" inkscape:export-xdpi="90" inkscape:export-ydpi="90" class="st0" d="M125,0
		C91.6,0,47.2,10,16.1,58.8c-49.5,78,26.2,185.2,75.6,260.5l21.7,33.3c2.6,3.7,0.4,1.2,3.7,5.1c0.4,0.5,1,1.2,1.5,1.7
		c0.4,0.5,1.1,1.2,1.5,1.6l3.2,3.3c3.6-3.4,4.6-4.3,8.7-10c2.9-4,5.7-8.5,8.2-12.1c5.9-8.7,8.9-13.8,14.9-22.9
		c28.6-43.7,61.7-96.5,81.4-144.6c25-60.8,12-118.4-42.1-154C173.6,7.2,152.8,0,125,0L125,0z"/>
	<path id="path3343" inkscape:connector-curvature="0" inkscape:export-xdpi="90" inkscape:export-ydpi="90" class="st1" d="
		M107.3,25.9c-140.1,27.4-93.7,219.6,38.8,192.8c47.3-9.6,89.8-57.2,77.4-117.7C214.1,54.7,165.4,14.6,107.3,25.9z"/>
	<path id="path3345" inkscape:connector-curvature="0" inkscape:export-xdpi="90" inkscape:export-ydpi="90" class="st2" d="
		M209.8,168.4l0.2-91.7h-71.5l5.9,13.5h10.9c-2.1,18.8-4.9,37.4-15.1,53.1c-7.1,10.8-12.3,11.6-16.5,11.6h-2.6v13.4h2.5
		c5.1,0,14.6-0.8,21.5-8.6c15.3-17.6,21.1-45.7,23.6-69.6h27.3l-0.1,78.2H209.8L209.8,168.4z"/>
	<path id="path3347" inkscape:connector-curvature="0" inkscape:export-xdpi="90" inkscape:export-ydpi="90" class="st2" d="
		M95.8,258.3l0.1-23.7H75.6l-0.1,23.7h3.6v-20.2h13.1v20.2H95.8z M110.8,237.1l-10.6,21.2h3.9l0.6-1.1c0.6-0.9,3-2.3,7.5-2.3h7.4
		l1.6,3.4h4l-11.8-24.1h-4L110.8,237.1z M113.4,251.3c-3.4,0-5.4,0.6-6.3,1.3l5.5-11.3l5.4,10H113.4z M150.9,237.6
		c-2.4-2.3-5.7-3.7-9.5-3.7c-7,0-13.2,5.2-13.2,12.2c0,7.2,5.7,12.7,13.1,12.7c4,0,7.6-1.6,10.1-4.3l-2.2-2.9
		c-1.8,2.3-4.6,3.7-7.8,3.7c-5.1,0-9.7-3.7-9.7-8.9c0-5.3,4.2-9.1,9.7-9.1c2.8,0,5.4,1.1,7.2,2.9L150.9,237.6L150.9,237.6z
		 M177.8,237.6c-2.4-2.3-5.7-3.7-9.5-3.7c-7.1,0-13.2,5.2-13.2,12.2c0,7.2,5.7,12.7,13.1,12.7c4,0,7.6-1.6,10.1-4.3l-2.2-2.9
		c-1.8,2.3-4.6,3.7-7.8,3.7c-5.1,0-9.7-3.7-9.7-8.9c0-5.3,4.2-9.1,9.7-9.1c2.8,0,5.4,1.1,7.2,2.9L177.8,237.6L177.8,237.6z"/>
	<path id="path3349" inkscape:connector-curvature="0" inkscape:export-xdpi="90" inkscape:export-ydpi="90" class="st2" d="
		M48.4,100.1c6.5-6.6,16.1-10.5,26.4-10.5c21.8,0,32.7,11.6,35,28.7c-5.3-3-11.1-3.4-16.9-3.4h-29v12.9h29c5.4,0,11.1,0.6,16.2,3
		c-3.9,14.7-18.5,24.8-34.6,24.8c-11.8,0-22.1-5.3-28.6-13.7l-8.1,10.6c9,9.8,22.3,15.8,36.8,15.8c27.3,0,48.5-20.6,48.5-46.8
		c0.1-25.7-17.8-44.9-48.5-44.9c-13.5,0-25.9,5.2-34.7,13.8L48.4,100.1L48.4,100.1z"/>
	<path id="path3351" inkscape:connector-curvature="0" inkscape:export-xdpi="90" inkscape:export-ydpi="90" class="st2" d="
		M56.2,124.3c0,11.3-2.4,4-1.2,9.5c2.3,0.8,5.9,0.8,8.9,0.9c1-1.5,1-6.5,6.9-6.6c4.3,0,6.2,2.8,6.5,6.7l30.9-0.1
		c1.3-3.4,1.4-6.5,6.5-6.6c4.3-0.1,6.1,2.8,6.7,6.6c2.9,0.1,6,0,8.2-1c2.4-8-2-14.8-5.4-23.1c-1.1-2.8-2.2-4.3-5.7-4.3H60.3
		c-4.8,0-4,2.7-4,6.8C56.3,116.9,56.2,120.6,56.2,124.3L56.2,124.3z"/>
	<path id="path3353" inkscape:connector-curvature="0" inkscape:export-xdpi="90" inkscape:export-ydpi="90" class="st1" d="
		M111.9,123.6c2.6,0.2,11.8,1.3,13.3,0.2c1.1-0.9,1.2-0.3-0.8-4.8c-0.8-1.6-1.4-3-2.1-4.6c-0.8-1.7-1-3.3-3-3.7
		c-1.2-0.3-5.7-0.2-7.2-0.2L111.9,123.6L111.9,123.6z"/>
	<path id="path3355" inkscape:connector-curvature="0" inkscape:export-xdpi="90" inkscape:export-ydpi="90" class="st1" d="
		M99.3,122.8l10.1,0.5l0.1-12.6L99,110.5C98.9,113.4,98.5,120.4,99.3,122.8L99.3,122.8z"/>
	<path id="path3357" inkscape:connector-curvature="0" inkscape:export-xdpi="90" inkscape:export-ydpi="90" class="st1" d="M86,122
		l10.5,0.5v-11.9L86,110.5V122L86,122z"/>
	<path id="path3359" inkscape:connector-curvature="0" inkscape:export-xdpi="90" inkscape:export-ydpi="90" class="st1" d="
		M73.3,121.1l10.3,0.8v-11.5l-10.3,0.1V121.1L73.3,121.1z"/>
	<path id="path3361" inkscape:connector-curvature="0" inkscape:export-xdpi="90" inkscape:export-ydpi="90" class="st1" d="
		M60.3,120.5l10.6,0.6v-10.8l-10.7-0.1L60.3,120.5L60.3,120.5z"/>
	<path id="path3363" inkscape:connector-curvature="0" inkscape:export-xdpi="90" inkscape:export-ydpi="90" class="st1" d="
		M112.9,130c-5.9,2.7-2.5,11,3.7,9C123,137.1,119.2,127.1,112.9,130z"/>
	<path id="path3365" inkscape:connector-curvature="0" inkscape:export-xdpi="90" inkscape:export-ydpi="90" class="st2" d="
		M69.1,130c-6.5,2.9-2.2,11.1,3.5,9C78.6,136.9,75.5,127.2,69.1,130z"/>
	<path id="path3367" inkscape:connector-curvature="0" inkscape:export-xdpi="90" inkscape:export-ydpi="90" class="st3" d="
		M139.4,146L139.4,146L139.4,146L139.4,146L139.4,146z M139.4,146L139.4,146L139.4,146L139.4,146z M139.4,146L139.4,146L139.4,146z
		 M139.4,146L139.4,146L139.4,146L139.4,146L139.4,146L139.4,146z"/>
</g>
</svg>
