<svg xmlns="http://www.w3.org/2000/svg" width="44" height="44" viewBox="0 0 44 44">
  <metadata><?xpacket begin="﻿" id="W5M0MpCehiHzreSzNTczkc9d"?>
<x:xmpmeta xmlns:x="adobe:ns:meta/" x:xmptk="Adobe XMP Core 5.6-c138 79.159824, 2016/09/14-01:09:01        ">
   <rdf:RDF xmlns:rdf="http://www.w3.org/1999/02/22-rdf-syntax-ns#">
      <rdf:Description rdf:about=""/>
   </rdf:RDF>
</x:xmpmeta>
                                                                                                    
                                                                                                    
                                                                                                    
                                                                                                    
                                                                                                    
                                                                                                    
                                                                                                    
                                                                                                    
                                                                                                    
                                                                                                    
                                                                                                    
                                                                                                    
                                                                                                    
                                                                                                    
                                                                                                    
                                                                                                    
                                                                                                    
                                                                                                    
                                                                                                    
                                                                                                    
                           
<?xpacket end="w"?></metadata>
<defs>
    <style>
      .cls-1 {
        fill: #fff;
        fill-rule: evenodd;
      }
    </style>
  </defs>
  <path id="лого" class="cls-1" d="M88,139a22,22,0,1,1-22,22A22,22,0,0,1,88,139Zm1.931,26.448h0Zm0,0h0Zm0,0h0Zm0,0h0Zm-13.579-2.9a0.883,0.883,0,1,0,.68,1.625A0.883,0.883,0,1,0,76.351,162.549Zm14.569-7.208h2.113c-0.4,3.405-.95,6.766-2.922,9.615-1.356,1.959-2.364,2.114-3.2,2.114H86.419L86.413,169.5H86.9a5.55,5.55,0,0,0,4.156-1.558c2.956-3.183,4.074-8.28,4.551-12.6h5.282L100.859,169.5h2.679l0.04-16.605H89.771Zm-4.459,8.072a4.074,4.074,0,0,0,1.575-.186c0.469-1.459-.384-2.694-1.028-4.18a1.083,1.083,0,0,0-.655-0.719c-1.085-3.238-4.223-5.436-8.939-5.436a10,10,0,0,0-6.707,2.5l1.63,1.735a7.483,7.483,0,0,1,5.094-1.9c3.144,0,5.106,1.174,6.095,3.045h-8.88c-0.935,0-.768.5-0.773,1.229,0,0.673-.016,1.348-0.017,2.022,0,2.052-.446.72-0.228,1.726a8.107,8.107,0,0,0,1.719.164,1.405,1.405,0,0,1,1.341-1.18,1.186,1.186,0,0,1,1.267,1.211l5.83-.013a6.963,6.963,0,0,1-6.407,3.768,7.115,7.115,0,0,1-5.527-2.475l-1.569,1.925A9.967,9.967,0,0,0,77.4,169.5a9.146,9.146,0,0,0,9.036-6.187C86.439,163.346,86.454,163.376,86.46,163.413Zm-11.812-2.595-0.014-1.842,2.066,0.012v1.946Zm2.521,0.11v-1.935l1.987-.006,0,2.085Zm4.478,0.267-2.027-.1v-2.1l2.032,0.05Zm2.49,0.139-1.965-.1c-0.008-.561-0.06-1.7-0.041-2.228l1.972,0.036C84.173,159.4,84.138,161.334,84.138,161.334Zm1.382,2.849a0.893,0.893,0,1,1-.705-1.639A0.893,0.893,0,1,1,85.52,164.183Zm-0.9-2.81,0.02-2.356a12.107,12.107,0,0,1,1.4.023,0.9,0.9,0,0,1,.582.68c0.142,0.285.254,0.529,0.41,0.839,0.4,0.8.362,0.692,0.147,0.854A9.952,9.952,0,0,1,84.62,161.373Z" transform="translate(-66 -139)"/>
</svg>
