<svg xmlns="http://www.w3.org/2000/svg" width="42.75" height="50.656" viewBox="0 0 42.75 50.656">
  <metadata><?xpacket begin="﻿" id="W5M0MpCehiHzreSzNTczkc9d"?>
<x:xmpmeta xmlns:x="adobe:ns:meta/" x:xmptk="Adobe XMP Core 5.6-c138 79.159824, 2016/09/14-01:09:01        ">
   <rdf:RDF xmlns:rdf="http://www.w3.org/1999/02/22-rdf-syntax-ns#">
      <rdf:Description rdf:about=""/>
   </rdf:RDF>
</x:xmpmeta>
                                                                                                    
                                                                                                    
                                                                                                    
                                                                                                    
                                                                                                    
                                                                                                    
                                                                                                    
                                                                                                    
                                                                                                    
                                                                                                    
                                                                                                    
                                                                                                    
                                                                                                    
                                                                                                    
                                                                                                    
                                                                                                    
                                                                                                    
                                                                                                    
                                                                                                    
                                                                                                    
                           
<?xpacket end="w"?></metadata>
<defs>
    <style>
      .cls-1 {
        fill: #fff;
        fill-rule: evenodd;
      }
    </style>
  </defs>
  <path id="иконка" class="cls-1" d="M363,546H331v13.375h32V546Zm-1.125,28.125a4.078,4.078,0,0,0,0-5.625,4.236,4.236,0,0,0-5.75,0,4.078,4.078,0,0,0,0,5.625A3.931,3.931,0,0,0,361.875,574.125Zm-24,0a4.078,4.078,0,0,0,0-5.625,4.236,4.236,0,0,0-5.75,0,4.078,4.078,0,0,0,0,5.625A3.931,3.931,0,0,0,337.875,574.125ZM325.625,546q0.249-6.75,6.25-8.812T347,535.375q9.123-.249,15.125,1.813t6.25,8.812v26.625a8.144,8.144,0,0,1-2.75,6v4.75A2.563,2.563,0,0,1,363,586h-2.625a2.544,2.544,0,0,1-1.875-.75,3.035,3.035,0,0,1-.875-1.875v-2.75h-21.25v2.75a3.046,3.046,0,0,1-.875,1.875,2.544,2.544,0,0,1-1.875.75H331a2.563,2.563,0,0,1-2.625-2.625v-4.75a8.137,8.137,0,0,1-2.75-6V546Z" transform="translate(-325.625 -535.344)"/>
</svg>
