<svg xmlns="http://www.w3.org/2000/svg" viewBox="0 0 609.66 152.63"><defs><style>.cls-1{fill:#d3741e;}.cls-1,.cls-2{stroke:#af631c;}.cls-1,.cls-2,.cls-3{stroke-linejoin:round;}.cls-2{fill:#fff;}.cls-3{fill:#e0e1e9;stroke:#c9cbd8;stroke-width:1.2px;}.cls-4{fill:#c9ccd8;}.cls-5{fill:#aeb0bb;}</style></defs><title>bus3</title><g id="Слой_2" data-name="Слой 2"><g id="схема_автобуса" data-name="схема автобуса"><path id="дверь" class="cls-1" d="M246.48,144H297a4,4,0,0,1,4,4h0a4,4,0,0,1-4,4H246.48a4,4,0,0,1-4-4h0A4,4,0,0,1,246.48,144Z"/><path id="дверь-2" class="cls-1" d="M541.65,144H572a4,4,0,0,1,4,4h0a4,4,0,0,1-4,4H541.65a4,4,0,0,1-4-4h0A4,4,0,0,1,541.65,144Z"/><path class="cls-1" d="M609.16,74.25c0,61.19-28,73.84-31.63,73.84H25.33a6.67,6.67,0,0,1-6.59-6.74V7.24A6.67,6.67,0,0,1,25.33.5H577.75C581.39.5,609.16,4.21,609.16,74.25Z"/><path class="cls-2" d="M599.72,74.25c0,61.19-19.54,73.84-23.18,73.84H7.09A6.67,6.67,0,0,1,.5,141.35V7.24A6.67,6.67,0,0,1,7.09.5H576.54C580.18.5,599.72,13.06,599.72,74.25Z"/><g id="водитель"><rect id="место-99" class="cls-3" x="545.7" y="20.04" width="26.96" height="23.59" rx="3.37" ry="3.37"/><path id="спинка-50" class="cls-4" d="M544.35,20h0a3.37,3.37,0,0,1,3.37,3.37V40.26a3.37,3.37,0,0,1-3.37,3.37h0A3.37,3.37,0,0,1,541,40.26V23.41A3.37,3.37,0,0,1,544.35,20Z"/><path id="руль" class="cls-5" d="M580.17,41.71a13.58,13.58,0,1,1,3.92-9.54A13.38,13.38,0,0,1,580.17,41.71ZM578.66,25a11,11,0,0,0-6.7-3.6v4a4.55,4.55,0,0,1,1.93,2.43,12.27,12.27,0,0,1,0,8.66A4.55,4.55,0,0,1,572,38.93v4a10.85,10.85,0,0,0,6.7-18ZM563,24.5a10.8,10.8,0,0,0-3.13,6.35h4a6.26,6.26,0,0,1,2.27-4,7.13,7.13,0,0,1,3.16-1.42v-4A10.77,10.77,0,0,0,563,24.5Zm0,15.35A10.78,10.78,0,0,0,569.3,43v-4a8,8,0,0,1-3.16-1.45,6.13,6.13,0,0,1-2.27-4h-4A10.81,10.81,0,0,0,563,39.85Z"/></g></g></g></svg>