<svg xmlns="http://www.w3.org/2000/svg" viewBox="0 0 298 190"><defs><style>.cls-1{isolation:isolate;}.cls-2{fill:#89b451;fill-rule:evenodd;}</style></defs><title>card</title><g id="Слой_2" data-name="Слой 2"><g id="карта" class="cls-1"><g id="карта-2" data-name="карта"><path class="cls-2" d="M52.86,27.7q-.28-.94-.4-1.48-.5,1.94-2.86,9.58h5.77Q53.14,28.64,52.86,27.7Zm203,114.64a1.66,1.66,0,0,0-1.6,1.2,16.58,16.58,0,0,0,0,7.92,1.65,1.65,0,0,0,1.6,1.19,1.67,1.67,0,0,0,1.6-1.21,16,16,0,0,0,0-7.9A1.67,1.67,0,0,0,255.81,142.34ZM28,142.34a1.66,1.66,0,0,0-1.6,1.2,16.58,16.58,0,0,0,0,7.92,1.65,1.65,0,0,0,1.6,1.19,1.67,1.67,0,0,0,1.6-1.21,16,16,0,0,0,0-7.9A1.67,1.67,0,0,0,28,142.34Zm36,0a1.66,1.66,0,0,0-1.6,1.2,16.58,16.58,0,0,0,0,7.92,1.65,1.65,0,0,0,1.6,1.19,1.67,1.67,0,0,0,1.6-1.21,16,16,0,0,0,0-7.9A1.67,1.67,0,0,0,63.95,142.34Zm-12,0a1.66,1.66,0,0,0-1.6,1.2,16.58,16.58,0,0,0,0,7.92,1.65,1.65,0,0,0,1.6,1.19,1.67,1.67,0,0,0,1.6-1.21,16,16,0,0,0,0-7.9A1.67,1.67,0,0,0,52,142.34ZM283,0H15A15,15,0,0,0,0,15V175a15,15,0,0,0,15,15H283a15,15,0,0,0,15-15V15A15,15,0,0,0,283,0ZM49.56,22.78H55.3L63.14,45H58.09l-1.6-5.27H48.41L46.81,45H41.75ZM25.06,27.92a9.08,9.08,0,0,1,3.61-4,10.68,10.68,0,0,1,5.52-1.39,14.89,14.89,0,0,1,6.48,1.56l-1.51,3.81a25.11,25.11,0,0,0-2.5-1,7.45,7.45,0,0,0-2.47-.44,4.78,4.78,0,0,0-4.1,2A9.26,9.26,0,0,0,28.63,34q0,7.4,5.56,7.4a17.56,17.56,0,0,0,5.65-1.17v3.94a15.68,15.68,0,0,1-6.08,1.14q-4.83,0-7.39-2.93T23.8,34A13.73,13.73,0,0,1,25.06,27.92ZM32,153.32a4.47,4.47,0,0,1-4,1.89,4.41,4.41,0,0,1-3.91-1.95,10.3,10.3,0,0,1-1.32-5.75q0-4,1.28-5.85A4.45,4.45,0,0,1,28,139.77a4.43,4.43,0,0,1,3.92,2,10.32,10.32,0,0,1,1.33,5.76Q33.24,151.43,32,153.32Zm12,0a4.47,4.47,0,0,1-4,1.89,4.41,4.41,0,0,1-3.91-1.95,10.3,10.3,0,0,1-1.32-5.75q0-4,1.28-5.85A4.45,4.45,0,0,1,40,139.77a4.43,4.43,0,0,1,3.92,2,10.32,10.32,0,0,1,1.33,5.76Q45.23,151.43,43.94,153.32Zm12,0a4.47,4.47,0,0,1-4,1.89A4.41,4.41,0,0,1,48,153.26a10.3,10.3,0,0,1-1.32-5.75q0-4,1.28-5.85A4.45,4.45,0,0,1,52,139.77a4.43,4.43,0,0,1,3.92,2,10.32,10.32,0,0,1,1.33,5.76Q57.21,151.43,55.93,153.32Zm12,0a4.47,4.47,0,0,1-4,1.89A4.41,4.41,0,0,1,60,153.26a10.3,10.3,0,0,1-1.32-5.75q0-4,1.28-5.85a5,5,0,0,1,7.87.09,10.32,10.32,0,0,1,1.33,5.76Q69.2,151.43,67.91,153.32ZM80,110a10,10,0,0,1-10,10H32a10,10,0,0,1-10-10V87A10,10,0,0,1,32,77H70A10,10,0,0,1,80,87ZM78.4,45l-5.28-8.49h-2.5V45H65.93V22.87h6.45q4.51,0,6.68,1.64a5.86,5.86,0,0,1,2.16,5A5.87,5.87,0,0,1,80.14,33a7.11,7.11,0,0,1-3,2.38q5,7.46,6.51,9.64Zm8-22.13h6.95q5.42,0,8.42,2.86t3,8q0,5.46-3.11,8.37t-9,2.91H86.39Zm15.33,130.45a4.47,4.47,0,0,1-4,1.89,4.41,4.41,0,0,1-3.91-1.95,10.3,10.3,0,0,1-1.32-5.75q0-4,1.28-5.85a5,5,0,0,1,7.87.09A10.32,10.32,0,0,1,103,147.5Q103,151.43,101.72,153.32Zm12,0a4.47,4.47,0,0,1-4,1.89,4.41,4.41,0,0,1-3.91-1.95,10.3,10.3,0,0,1-1.32-5.75q0-4,1.28-5.85a5,5,0,0,1,7.87.09A10.32,10.32,0,0,1,115,147.5Q115,151.43,113.71,153.32Zm12,0a4.47,4.47,0,0,1-4,1.89,4.41,4.41,0,0,1-3.91-1.95,10.3,10.3,0,0,1-1.32-5.75q0-4,1.28-5.85a5,5,0,0,1,7.87.09A10.32,10.32,0,0,1,127,147.5Q127,151.43,125.69,153.32Zm12,0a4.47,4.47,0,0,1-4,1.89,4.41,4.41,0,0,1-3.91-1.95,10.3,10.3,0,0,1-1.32-5.75q0-4,1.28-5.85a5,5,0,0,1,7.87.09A10.32,10.32,0,0,1,139,147.5Q139,151.43,137.68,153.32Zm33.81,0a4.47,4.47,0,0,1-4,1.89,4.41,4.41,0,0,1-3.91-1.95,10.3,10.3,0,0,1-1.32-5.75q0-4,1.28-5.85a5,5,0,0,1,7.87.09,10.32,10.32,0,0,1,1.33,5.76Q172.77,151.43,171.49,153.32Zm12,0a4.47,4.47,0,0,1-4,1.89,4.41,4.41,0,0,1-3.91-1.95,10.3,10.3,0,0,1-1.32-5.75q0-4,1.28-5.85a5,5,0,0,1,7.87.09,10.32,10.32,0,0,1,1.33,5.76Q184.76,151.43,183.47,153.32Zm12,0a4.47,4.47,0,0,1-4,1.89,4.41,4.41,0,0,1-3.91-1.95,10.3,10.3,0,0,1-1.32-5.75q0-4,1.28-5.85a5,5,0,0,1,7.87.09,10.32,10.32,0,0,1,1.33,5.76Q196.75,151.43,195.46,153.32Zm12,0a4.47,4.47,0,0,1-4,1.89,4.41,4.41,0,0,1-3.91-1.95,10.3,10.3,0,0,1-1.32-5.75q0-4,1.28-5.85a5,5,0,0,1,7.87.09,10.32,10.32,0,0,1,1.33,5.76Q208.73,151.43,207.45,153.32Zm28.35,0a4.47,4.47,0,0,1-4,1.89,4.41,4.41,0,0,1-3.91-1.95,10.3,10.3,0,0,1-1.32-5.75q0-4,1.28-5.85a5,5,0,0,1,7.87.09,10.32,10.32,0,0,1,1.33,5.76Q237.09,151.43,235.8,153.32Zm12,0a4.47,4.47,0,0,1-4,1.89,4.41,4.41,0,0,1-3.91-1.95,10.3,10.3,0,0,1-1.32-5.75q0-4,1.28-5.85a5,5,0,0,1,7.87.09,10.32,10.32,0,0,1,1.33,5.76Q249.07,151.43,247.79,153.32ZM234,64.45a22.4,22.4,0,1,1,0-32.9,22.4,22.4,0,1,1,0,32.9Zm25.77,88.87a4.47,4.47,0,0,1-4,1.89,4.41,4.41,0,0,1-3.91-1.95,10.3,10.3,0,0,1-1.32-5.75q0-4,1.28-5.85a5,5,0,0,1,7.87.09,10.32,10.32,0,0,1,1.33,5.76Q261.06,151.43,259.77,153.32Zm12,0a4.47,4.47,0,0,1-4,1.89,4.41,4.41,0,0,1-3.91-1.95,10.3,10.3,0,0,1-1.32-5.75q0-4,1.28-5.85a5,5,0,0,1,7.87.09A10.32,10.32,0,0,1,273,147.5Q273,151.43,271.76,153.32ZM40,142.34a1.66,1.66,0,0,0-1.6,1.2,16.58,16.58,0,0,0,0,7.92,1.65,1.65,0,0,0,1.6,1.19,1.67,1.67,0,0,0,1.6-1.21,16,16,0,0,0,0-7.9A1.67,1.67,0,0,0,40,142.34Zm227.82,0a1.66,1.66,0,0,0-1.6,1.2,16.58,16.58,0,0,0,0,7.92,1.65,1.65,0,0,0,1.6,1.19,1.67,1.67,0,0,0,1.6-1.21,16,16,0,0,0,0-7.9A1.67,1.67,0,0,0,267.8,142.34Zm-158.05,0a1.66,1.66,0,0,0-1.6,1.2,16.58,16.58,0,0,0,0,7.92,1.65,1.65,0,0,0,1.6,1.19,1.67,1.67,0,0,0,1.6-1.21,16,16,0,0,0,0-7.9A1.67,1.67,0,0,0,109.74,142.34Zm12,0a1.66,1.66,0,0,0-1.6,1.2,16.58,16.58,0,0,0,0,7.92,1.65,1.65,0,0,0,1.6,1.19,1.67,1.67,0,0,0,1.6-1.21,16,16,0,0,0,0-7.9A1.67,1.67,0,0,0,121.73,142.34Zm12,0a1.66,1.66,0,0,0-1.6,1.2,16.58,16.58,0,0,0,0,7.92,1.65,1.65,0,0,0,1.6,1.19,1.67,1.67,0,0,0,1.6-1.21,16,16,0,0,0,0-7.9A1.67,1.67,0,0,0,133.72,142.34Zm69.77,0a1.66,1.66,0,0,0-1.6,1.2,16.58,16.58,0,0,0,0,7.92,1.65,1.65,0,0,0,1.6,1.19,1.67,1.67,0,0,0,1.6-1.21,16,16,0,0,0,0-7.9A1.67,1.67,0,0,0,203.48,142.34Zm-36,0a1.66,1.66,0,0,0-1.6,1.2,16.58,16.58,0,0,0,0,7.92,1.65,1.65,0,0,0,1.6,1.19,1.67,1.67,0,0,0,1.6-1.21,16,16,0,0,0,0-7.9A1.67,1.67,0,0,0,167.52,142.34Zm12,0a1.66,1.66,0,0,0-1.6,1.2,16.58,16.58,0,0,0,0,7.92,1.65,1.65,0,0,0,1.6,1.19,1.67,1.67,0,0,0,1.6-1.21,16,16,0,0,0,0-7.9A1.67,1.67,0,0,0,179.51,142.34ZM75.39,27.38A6.57,6.57,0,0,0,72,26.71H70.62v6h1.51A5.79,5.79,0,0,0,75.42,32a2.65,2.65,0,0,0,1.06-2.33A2.42,2.42,0,0,0,75.39,27.38Zm168.43,115a1.66,1.66,0,0,0-1.6,1.2,16.58,16.58,0,0,0,0,7.92,1.65,1.65,0,0,0,1.6,1.19,1.67,1.67,0,0,0,1.6-1.21,16,16,0,0,0,0-7.9A1.67,1.67,0,0,0,243.82,142.34ZM99.88,33.84q0-7.13-6.3-7.13h-2.5V41.13h2Q99.88,41.13,99.88,33.84ZM97.76,142.34a1.66,1.66,0,0,0-1.6,1.2,16.58,16.58,0,0,0,0,7.92,1.65,1.65,0,0,0,1.6,1.19,1.67,1.67,0,0,0,1.6-1.21,16,16,0,0,0,0-7.9A1.67,1.67,0,0,0,97.76,142.34Zm134.08,0a1.66,1.66,0,0,0-1.6,1.2,16.58,16.58,0,0,0,0,7.92,1.65,1.65,0,0,0,1.6,1.19,1.67,1.67,0,0,0,1.6-1.21,16,16,0,0,0,0-7.9A1.67,1.67,0,0,0,231.84,142.34Zm-40.34,0a1.66,1.66,0,0,0-1.6,1.2,16.58,16.58,0,0,0,0,7.92,1.65,1.65,0,0,0,1.6,1.19,1.67,1.67,0,0,0,1.6-1.21,16,16,0,0,0,0-7.9A1.67,1.67,0,0,0,191.5,142.34Z"/></g></g></g></svg>