<svg xmlns="http://www.w3.org/2000/svg" viewBox="0 0 145.99 28.5"><defs><style>.cls-1{fill:#fff;}</style></defs><title>cards</title><g id="Слой_2" data-name="Слой 2"><g id="cards"><path id="иконка" class="cls-1" d="M99.29,27.81a2.29,2.29,0,0,0,.69-1.69V21.38H62v4.75a2.26,2.26,0,0,0,.71,1.69,2.31,2.31,0,0,0,1.67.69H97.6A2.28,2.28,0,0,0,99.29,27.81ZM62,4.75h38V2.38A2.31,2.31,0,0,0,99.29.71,2.25,2.25,0,0,0,97.6,0H64.36a2.27,2.27,0,0,0-1.69.71A2.31,2.31,0,0,0,62,2.38ZM77.27,19,79.2,7.13H76.12L74.19,19Zm16-11.78a1.22,1.22,0,0,0-.41.22,2.65,2.65,0,0,0-.26.26,1.14,1.14,0,0,0-.19.32l-4.6,11H91l.67-1.19h3.56L95.95,19H98.8L96.32,7.13H93.83A1.73,1.73,0,0,0,93.23,7.22Zm-.37,8.22,1.29-5.08,1.08,5.08ZM85,18.65a4.77,4.77,0,0,0,2.06-1.3A3.18,3.18,0,0,0,88,15.06a2.66,2.66,0,0,0-.67-1.78,4.13,4.13,0,0,0-1.48-1.13,11.39,11.39,0,0,1-1.5-.78,1.15,1.15,0,0,1-.69-.87q0-.89,1.69-.95a4.75,4.75,0,0,1,2.65.54l.45-2.49-.37-.11A11,11,0,0,0,87,7.25a7.36,7.36,0,0,0-1.34-.13,7.11,7.11,0,0,0-1.48.17,9.64,9.64,0,0,0-1.67.54A3.34,3.34,0,0,0,81,9a3.2,3.2,0,0,0-.58,1.89,2.52,2.52,0,0,0,.67,1.74,4.06,4.06,0,0,0,1.48,1.08,7.73,7.73,0,0,1,1.48.8,1.25,1.25,0,0,1,.67.95,1.06,1.06,0,0,1-1,1,5.67,5.67,0,0,1-2.25,0,3.9,3.9,0,0,1-1.85-.72l-.45,2.6.41.15a7.51,7.51,0,0,0,1.26.32,9.86,9.86,0,0,0,1.82.17A7.91,7.91,0,0,0,85,18.65ZM62,7.13v.67a10.41,10.41,0,0,1,2.08.89L66.73,19H70L74.9,7.13H71.56l-2.93,8.16-.37-1.74-1-5.34-.07-.26a1.16,1.16,0,0,0-.43-.54,1.49,1.49,0,0,0-.95-.28H62Z"/><path class="cls-1" d="M48.41,6H38.06a8.15,8.15,0,0,0,7.57,6.61h8.24a3.72,3.72,0,0,0,.11-1.1A5.48,5.48,0,0,0,48.52,6ZM39,13.2v8.27h5V17.06h4.45a5.5,5.5,0,0,0,5.23-3.86ZM21.15,6V21.46H25.6a2,2,0,0,0,1.67-1.1c3-6,3.9-7.71,3.9-7.71h.56v8.82h5V6H32.28a2.32,2.32,0,0,0-1.67,1.1l-3.9,7.71h-.56V6h-5ZM0,21.46V6H5s1.45,0,2.23,2.2c2,5.84,2.23,6.61,2.23,6.61s.45-1.43,2.23-6.61C12.47,6,13.91,6,13.91,6h5V21.46h-5V13.2h-.56l-2.78,8.27H8.35L5.57,13.2H5v8.27H0Z"/><path class="cls-1" d="M145.3,27.8a2.31,2.31,0,0,0,.69-1.67V2.38A2.31,2.31,0,0,0,145.3.71,2.27,2.27,0,0,0,143.61,0H110.36a2.27,2.27,0,0,0-1.69.71A2.31,2.31,0,0,0,108,2.38V26.13a2.26,2.26,0,0,0,.71,1.69,2.31,2.31,0,0,0,1.67.69h33.25A2.26,2.26,0,0,0,145.3,27.8ZM136.76,9.22a6.88,6.88,0,0,1,2.1,5,7.13,7.13,0,0,1-7.12,7.11A6.84,6.84,0,0,1,127,19.52a7.09,7.09,0,0,1-9.8-.22,6.85,6.85,0,0,1-2.08-5,6.91,6.91,0,0,1,2.08-5A7.07,7.07,0,0,1,127,9a7,7,0,0,1,9.78.24Zm-.28,5a4.75,4.75,0,0,0-9.5,0,4.75,4.75,0,0,0,9.5,0Z"/></g></g></svg>