<svg xmlns="http://www.w3.org/2000/svg" viewBox="0 0 53.32 42.91"><defs><style>.cls-1{fill:#73b547;}</style></defs><title>cart-g</title><g id="Слой_2" data-name="Слой 2"><g id="Слой_1-2" data-name="Слой 1"><path id="иконка" class="cls-1" d="M48,5.38,5.25,5.51l0,5.38L48,10.75Zm.05,16L5.3,21.53l.05,16,42.72-.14ZM51.71,1.61a5.09,5.09,0,0,1,1.51,3.75l.1,32a5.09,5.09,0,0,1-1.48,3.76,5.54,5.54,0,0,1-3.74,1.64l-42.72.14A5.54,5.54,0,0,1,1.61,41.3,5.09,5.09,0,0,1,.1,37.55L0,5.53A5.09,5.09,0,0,1,1.49,1.78,5.54,5.54,0,0,1,5.23.14L48,0A5.54,5.54,0,0,1,51.71,1.61Z"/></g></g></svg>