<svg xmlns="http://www.w3.org/2000/svg" width="34.969" height="48" viewBox="0 0 34.969 48">
  <metadata><?xpacket begin="﻿" id="W5M0MpCehiHzreSzNTczkc9d"?>
<x:xmpmeta xmlns:x="adobe:ns:meta/" x:xmptk="Adobe XMP Core 5.6-c138 79.159824, 2016/09/14-01:09:01        ">
   <rdf:RDF xmlns:rdf="http://www.w3.org/1999/02/22-rdf-syntax-ns#">
      <rdf:Description rdf:about=""/>
   </rdf:RDF>
</x:xmpmeta>
                                                                                                    
                                                                                                    
                                                                                                    
                                                                                                    
                                                                                                    
                                                                                                    
                                                                                                    
                                                                                                    
                                                                                                    
                                                                                                    
                                                                                                    
                                                                                                    
                                                                                                    
                                                                                                    
                                                                                                    
                                                                                                    
                                                                                                    
                                                                                                    
                                                                                                    
                                                                                                    
                           
<?xpacket end="w"?></metadata>
<defs>
    <style>
      .cls-1 {
        fill: #fff;
        fill-rule: evenodd;
      }
    </style>
  </defs>
  <path id="иконка" class="cls-1" d="M153.62,935.235h0Zm0,0h0Zm0,0h0Zm0,0h0Zm-9.893-2.107a0.642,0.642,0,1,0,.5,1.182A0.642,0.642,0,1,0,143.726,933.127Zm5.355,16.156a1.564,1.564,0,0,1,.881-0.176H150.6l-0.752-1.321Zm5.259-21.4h1.539c-0.293,2.477-.692,4.921-2.129,6.993-0.988,1.425-1.722,1.538-2.331,1.538h-0.358l0,1.765h0.358a4.051,4.051,0,0,0,3.028-1.133c2.153-2.316,2.967-6.022,3.315-9.163h3.848l-0.025,10.3h1.951l0.03-12.077H153.5Zm7.016-9.147a17.469,17.469,0,0,0-9.762-2.74c-4.709,0-10.949,1.306-15.322,7.748-6.976,10.277,3.691,24.4,10.635,34.326l3.056,4.388a4.89,4.89,0,0,0,.524.677c0.059,0.068.138,0.156,0.2,0.221s0.156,0.158.213,0.218l0.456,0.43a7.4,7.4,0,0,0,1.227-1.317c0.405-.517.809-1.118,1.151-1.592,0.827-1.145,1.249-1.818,2.095-3.023,4.036-5.75,8.682-12.711,11.459-19.053C170.8,931,168.974,923.425,161.356,918.737Zm-13.867,31.288h-0.506l0.007-2.667h-1.85l-0.006,2.667h-0.5l0.008-3.128H147.5Zm3.565,0-0.226-.457h-1.052a1.323,1.323,0,0,0-1.049.31l-0.089.147h-0.546l1.5-2.8-0.19-.386h0.557l1.656,3.182h-0.565ZM153.9,950.1a1.658,1.658,0,1,1,.013-3.291,1.978,1.978,0,0,1,1.329.5l-0.325.343a1.486,1.486,0,0,0-1.01-.377,1.259,1.259,0,0,0-1.366,1.2,1.277,1.277,0,0,0,1.365,1.17,1.421,1.421,0,0,0,1.1-.49l0.31,0.381A1.992,1.992,0,0,1,153.9,950.1Zm3.783,0a1.658,1.658,0,1,1,.013-3.291,1.98,1.98,0,0,1,1.329.5l-0.325.343a1.486,1.486,0,0,0-1.01-.377,1.259,1.259,0,0,0-1.366,1.2,1.277,1.277,0,0,0,1.365,1.17,1.421,1.421,0,0,0,1.1-.49l0.309,0.381A1.99,1.99,0,0,1,157.678,950.1Zm-3.116-5.3c-18.641,3.534-25.164-21.787-5.453-25.389,8.173-1.493,15.03,3.793,16.359,9.884C167.209,937.27,161.226,943.531,154.562,944.8Zm-3.471-11.04a2.981,2.981,0,0,0,1.147-.135c0.342-1.061-.279-1.96-0.749-3.04a0.783,0.783,0,0,0-.477-0.523c-0.79-2.355-3.077-3.954-6.512-3.954a7.293,7.293,0,0,0-4.886,1.816l1.187,1.261a5.463,5.463,0,0,1,3.712-1.384c2.291,0,3.719.853,4.44,2.214h-6.469c-0.681,0-.56.362-0.563,0.894,0,0.49-.012.98-0.012,1.47,0,1.493-.325.524-0.166,1.256a5.9,5.9,0,0,0,1.252.119,1.023,1.023,0,0,1,.977-0.858,0.863,0.863,0,0,1,.923.88l4.247-.009a5.072,5.072,0,0,1-4.667,2.741,5.19,5.19,0,0,1-4.027-1.8l-1.143,1.4a7.266,7.266,0,0,0,5.182,2.077,6.662,6.662,0,0,0,6.583-4.5C151.076,933.706,151.087,933.728,151.091,933.755Zm-8.605-1.887-0.01-1.34,1.5,0.009v1.415Zm1.837,0.08V930.54l1.448,0,0,1.516Zm3.262,0.194-1.477-.073V930.54l1.48,0.036Zm1.814,0.1-1.431-.074c-0.006-.408-0.044-1.237-0.03-1.62l1.436,0.026C149.425,930.838,149.4,932.243,149.4,932.243Zm1.007,2.072a0.65,0.65,0,1,1-.514-1.192A0.65,0.65,0,1,1,150.406,934.315Zm-0.656-2.044,0.015-1.713a8.516,8.516,0,0,1,1.02.017,0.654,0.654,0,0,1,.424.494c0.1,0.208.185,0.385,0.3,0.61,0.293,0.582.263,0.5,0.107,0.621A7.226,7.226,0,0,1,149.75,932.271Z" transform="translate(-134 -916)"/>
</svg>
