<svg xmlns="http://www.w3.org/2000/svg" viewBox="0 0 38 28.5"><defs><style>.cls-1{fill:#fff;}</style></defs><title>maestro</title><g id="Слой_2" data-name="Слой 2"><g id="Слой_1-2" data-name="Слой 1"><path class="cls-1" d="M37.31,27.79A2.31,2.31,0,0,0,38,26.13V2.38A2.31,2.31,0,0,0,37.31.71,2.27,2.27,0,0,0,35.62,0H2.37A2.27,2.27,0,0,0,.69.71,2.31,2.31,0,0,0,0,2.38V26.13a2.26,2.26,0,0,0,.7,1.69,2.31,2.31,0,0,0,1.67.69H35.62A2.26,2.26,0,0,0,37.31,27.79ZM28.78,9.22a6.88,6.88,0,0,1,2.1,5,7.13,7.13,0,0,1-7.12,7.11A6.84,6.84,0,0,1,19,19.52a6.84,6.84,0,0,1-4.75,1.86,6.87,6.87,0,0,1-5-2.08,6.85,6.85,0,0,1-2.08-5,6.91,6.91,0,0,1,2.08-5,6.84,6.84,0,0,1,5-2.1A6.84,6.84,0,0,1,19,9a7,7,0,0,1,9.78.24Zm-.28,5A4.75,4.75,0,0,0,23.75,9.5,4.75,4.75,0,0,0,19,14.25,4.75,4.75,0,0,0,23.75,19a4.75,4.75,0,0,0,4.75-4.75Z"/></g></g></svg>