<svg xmlns="http://www.w3.org/2000/svg" width="38" height="28.5" viewBox="0 0 38 28.5">
  <metadata><?xpacket begin="﻿" id="W5M0MpCehiHzreSzNTczkc9d"?>
<x:xmpmeta xmlns:x="adobe:ns:meta/" x:xmptk="Adobe XMP Core 5.6-c138 79.159824, 2016/09/14-01:09:01        ">
   <rdf:RDF xmlns:rdf="http://www.w3.org/1999/02/22-rdf-syntax-ns#">
      <rdf:Description rdf:about=""/>
   </rdf:RDF>
</x:xmpmeta>
                                                                                                    
                                                                                                    
                                                                                                    
                                                                                                    
                                                                                                    
                                                                                                    
                                                                                                    
                                                                                                    
                                                                                                    
                                                                                                    
                                                                                                    
                                                                                                    
                                                                                                    
                                                                                                    
                                                                                                    
                                                                                                    
                                                                                                    
                                                                                                    
                                                                                                    
                                                                                                    
                           
<?xpacket end="w"?></metadata>
<defs>
    <style>
      .cls-1 {
        fill: #fff;
        fill-rule: evenodd;
      }
    </style>
  </defs>
  <path id="иконка" class="cls-1" d="M997.313,953.545a2.311,2.311,0,0,0,.687-1.67v-23.75a2.313,2.313,0,0,0-.687-1.67,2.264,2.264,0,0,0-1.688-.705h-33.25a2.266,2.266,0,0,0-1.689.705,2.312,2.312,0,0,0-.686,1.67v23.75a2.262,2.262,0,0,0,.705,1.688,2.307,2.307,0,0,0,1.67.687h33.25A2.264,2.264,0,0,0,997.313,953.545Zm-8.535-18.573a22.283,22.283,0,0,1-14.528,12.153A9.649,9.649,0,0,1,988.778,934.972ZM988.5,940a4.753,4.753,0,1,0-1.392,3.358A4.574,4.574,0,0,0,988.5,940Z" transform="translate(-960 -925.75)"/>
</svg>
