<svg xmlns="http://www.w3.org/2000/svg" width="39.938" height="38.031" viewBox="0 0 39.938 38.031">
  <metadata><?xpacket begin="﻿" id="W5M0MpCehiHzreSzNTczkc9d"?>
<x:xmpmeta xmlns:x="adobe:ns:meta/" x:xmptk="Adobe XMP Core 5.6-c138 79.159824, 2016/09/14-01:09:01        ">
   <rdf:RDF xmlns:rdf="http://www.w3.org/1999/02/22-rdf-syntax-ns#">
      <rdf:Description rdf:about=""/>
   </rdf:RDF>
</x:xmpmeta>
                                                                                                    
                                                                                                    
                                                                                                    
                                                                                                    
                                                                                                    
                                                                                                    
                                                                                                    
                                                                                                    
                                                                                                    
                                                                                                    
                                                                                                    
                                                                                                    
                                                                                                    
                                                                                                    
                                                                                                    
                                                                                                    
                                                                                                    
                                                                                                    
                                                                                                    
                                                                                                    
                           
<?xpacket end="w"?></metadata>
<defs>
    <style>
      .cls-1 {
        fill: #acacac;
        fill-rule: evenodd;
      }
    </style>
  </defs>
  <path id="иконка" class="cls-1" d="M488.687,564.906a3.933,3.933,0,0,0,2.579-1.64,3.747,3.747,0,0,0,.7-2.953,3.885,3.885,0,0,0-1.688-2.579,3.8,3.8,0,0,0-2.953-.7,3.862,3.862,0,0,0-2.531,1.688,3.8,3.8,0,0,0-.7,2.953,4.134,4.134,0,0,0,1.593,2.578A3.982,3.982,0,0,0,488.687,564.906ZM506.969,595H492.906a10.1,10.1,0,0,1-6.562-2.437,10,10,0,0,1-3.375-6l-3.938-19.594h3.938l3.937,18.937a5.9,5.9,0,0,0,6,5.063h14.063V595Zm12-3-3,3-7.594-6H494.688a5.724,5.724,0,0,1-3.844-1.359,6.206,6.206,0,0,1-2.063-3.516l-2.719-11.812a4.556,4.556,0,0,1,.75-3.375,4.436,4.436,0,0,1,2.907-1.875h0.093a3.829,3.829,0,0,1,1.875.093,5.428,5.428,0,0,1,1.594.75l3.282,2.532a12.816,12.816,0,0,0,4.359,2.25,10.493,10.493,0,0,0,5.016.281v4.312a12.93,12.93,0,0,1-5.391-.375,23.3,23.3,0,0,1-4.922-2.062L497.687,583h9.75Z" transform="translate(-479.031 -556.969)"/>
</svg>
