<svg xmlns="http://www.w3.org/2000/svg" width="1280" height="1024" viewBox="0 0 1280 1024">
  <metadata><?xpacket begin="﻿" id="W5M0MpCehiHzreSzNTczkc9d"?>
<x:xmpmeta xmlns:x="adobe:ns:meta/" x:xmptk="Adobe XMP Core 5.6-c138 79.159824, 2016/09/14-01:09:01        ">
   <rdf:RDF xmlns:rdf="http://www.w3.org/1999/02/22-rdf-syntax-ns#">
      <rdf:Description rdf:about=""/>
   </rdf:RDF>
</x:xmpmeta>
                                                                                                    
                                                                                                    
                                                                                                    
                                                                                                    
                                                                                                    
                                                                                                    
                                                                                                    
                                                                                                    
                                                                                                    
                                                                                                    
                                                                                                    
                                                                                                    
                                                                                                    
                                                                                                    
                                                                                                    
                                                                                                    
                                                                                                    
                                                                                                    
                                                                                                    
                                                                                                    
                           
<?xpacket end="w"?></metadata>
<defs>
    <style>
      .cls-1 {
        fill: #fff;
        fill-rule: evenodd;
        opacity: 0.10;
      }
    </style>
  </defs>
  <path id="карта" class="cls-1" d="M3.556,316.66A8.159,8.159,0,0,1,.809,327.866L-2,329.569v-16.7A8.131,8.131,0,0,1,3.556,316.66ZM925.964-165.82l9.555,0.788c7.867,0.648,16,1.32,24.347,2.022L980.645-281h16.566L976.188-161.619c22.03,1.9,48.082,3.771,75.572,5.541l7.18-23.456-31.19-2.184a8.127,8.127,0,0,1-7.57-8.707,8.151,8.151,0,0,1,8.7-7.569l41.19,2.88a2.749,2.749,0,0,1,.47.034l24.67,1.726,7.4-61.831-72.44-6.754c-0.02,0-.03,0-0.04,0a8.154,8.154,0,0,1-7.33-8.876,8.157,8.157,0,0,1,8.88-7.367l35.12,3.274,0.65-6.088h16.4l-0.8,7.6,29.42,2.743,0.03,0a8.174,8.174,0,0,1,5.56,3,8.173,8.173,0,0,1,1.75,6.095l-9.33,77.856a8.153,8.153,0,0,1-8.67,7.168l-26.16-1.83-7.15,23.344c39.61,2.446,81.05,4.665,116.98,6.467l-0.57-12.4-46.19,2.132a8.2,8.2,0,0,1-6.09-2.328,8.168,8.168,0,0,1-2.44-6.05l0.54-19.38a8.161,8.161,0,0,1,8.38-7.927c0.19,0.006.38,0.017,0.58,0.036a8.161,8.161,0,0,1,7.35,8.347l-0.3,10.6,45.57-2.1a8.167,8.167,0,0,1,5.87,2.122,8.15,8.15,0,0,1,2.65,5.653l1.02,22.117c41.78,2.047,73.54,3.42,81.65,3.766,9.03-2.141,17.82-4.076,26.5-5.822v29.625c-7.13,1.492-14.34,3.112-21.73,4.879a14.506,14.506,0,0,1-3.98.384c-0.49-.02-12.89-0.542-32.88-1.451l0.26,200.532,42.62-1.969c3.7-.512,9.25-1.244,15.71-2.08V96.573c-5.72.743-10.57,1.386-13.84,1.841-0.25.034-.5,0.056-0.75,0.069L1244,100.858l-0.18.008-30.43,1.4,1.74,37.6c0,0.071.01,0.143,0.01,0.216l2.03,44,72.75-17.256a8.16,8.16,0,0,1,10.04,7.78l1.29,66.9,0.23-.025c0.12-.012.23-0.022,0.35-0.03l4.62-.305,3.55-.235v18.17c-0.8.052-1.59,0.1-2.35,0.156l-4.45.294-1.6.169,0.13,6.9c0.01,0.21.01,0.424,0,.636a7.126,7.126,0,0,1-.08.809L1271.33,511.17a314.066,314.066,0,0,0,36.32,2.154c0.23,0,.46,0,0.69.021l1.66,0.132v14.55l-2.48-.2c-5.11.052-55.07,0.168-91.76-14.942-21.54-8.869-49.01-9.43-73.37-7.589a7.938,7.938,0,0,1-7.18.615c-12.64,1.209-24.15,2.935-33.12,4.285-4.96.745-9.24,1.389-12.78,1.82-13.9,1.689-23.91-1.589-30.51-5.382a118.737,118.737,0,0,1-6.72,21.233c74.68,39.524,181.5,74.927,257.92,97.661v30.393c-73.22-21.466-177.97-55.541-257.03-94.991l-28.49,57.543c78.13,44.062,238.71,146.715,246.83,151.91a8.16,8.16,0,0,1-8.8,13.745c-1.96-1.254-162.74-104.044-242.1-149.24l-13.32,63.61,46.17-2.131a6.346,6.346,0,1,1,.58,12.678l-49.44,2.282-13.813,65.951c17.363,4.712,50.883,6.195,97.483,4.289a6.328,6.328,0,0,1,2.53-.714l88.05-5.874a6.346,6.346,0,0,1,1.11,12.64c-0.4.042-38.69,4.123-82.08,6.222l0.62,13.338,21.55-.141a6.345,6.345,0,0,1,.08,12.69l-38.54.252a6.346,6.346,0,0,1-.68-12.658l4.87-.492L1085,794.393c-48.57,1.838-82.24-.02-100.14-5.533-0.221-.068-0.47-0.138-0.7-0.206l-46.33,26.754,25.61,43.455a296.381,296.381,0,0,1,35.469-6.608c80.085-9.321,97.335-9.6,102.605-1.674,4.4,6.626,13.85,40.145,1.53,53.669-13.33,14.622-22.83,6.289-23.23,5.926a6.346,6.346,0,0,1,7.75-10c0.74-.082,2.9-0.969,6.1-4.476,5.97-6.547,1.04-30.766-2.24-37.264-6.44-2.108-33.28.115-58.79,2.8l11.75,84.519,182.73-21.747-0.16-3.334a7.3,7.3,0,0,1,7.92-7.6l72.79,6.672,0.04,0a7.071,7.071,0,0,1,2.3.655v13.224a7.129,7.129,0,0,1-3.28.7l-55.8-2-11.67,42.361a7.262,7.262,0,0,1-5.89,5.24l-186.23,28.778a7.3,7.3,0,0,1-2.67.82l-61.754,6.46L983.4,1031H968.881l-0.591-12.81-37.105,3.19a7.286,7.286,0,0,1-4.168-.91L893.032,1031h-80.6l55.9-6.37L857.435,909.7c-26.147,6.757-87.836,11.232-111.828,12.77,3.548,37.249,7.164,76.793,10.026,108.526H726.506c-2.336-25.89-5.147-56.663-8-87.013l-0.945.961A6.348,6.348,0,0,1,714.4,946.7l-51.64,11.336a6.349,6.349,0,0,1-7.516-4.652l-19.135-76.165c-20.1,1.518-34.6,2.65-38.9,3.07-0.383.037-.765,0.057-1.147,0.085l10.028,41.934,8.458-1.454A6.342,6.342,0,0,1,621.7,925.3L653.146,1031H639.905l-8.312-27.94-137.431,12.92,1.685,15.02h-9.12l-1.591-14.17-8.4.79c-3.318,4.66-6.49,9.1-9.549,13.38H431.465c1.55-2.15,3.132-4.35,4.764-6.62-3.421.7-6.869,1.41-10.306,2.12l0.849,4.5h-9.226l-0.5-2.66c-4.359.91-8.629,1.8-12.715,2.66H357.153c-2.673-5.79-5.96-16.29-10.4-36.186-2.587-11.6-4.8-23.041-6.072-29.884L300,973.173A521.652,521.652,0,0,0,319.826,1031h-31.25q-2.559-6.645-4.93-13.35c-9.171,3.23-22.671,7.99-37.865,13.35h-38.15c27.907-9.85,56.293-19.85,71.935-25.36-10.8-33.049-18.519-66.608-25.285-96.971L123.335,954.2a6.312,6.312,0,0,1-2.868,1.891L95.132,964.17q3.795,7.435,7.385,15.872c8.64,20.428,14.275,37.728,18.451,50.958H107.654c-3.967-12.42-9.215-28.02-16.826-46.014-18.782-44.411-44.129-66.3-51.258-71.834l-2.188-1.61a6.345,6.345,0,0,1,7.264-10.4c0.231,0.153,1.337.9,3.13,2.292l20.145,14.82,31.638-17.687L39.157,740.4-2,721.95V708.042L46.759,729.9a6.347,6.347,0,0,1,3.341,3.552l62.841,166.634a6.31,6.31,0,0,1,.792,1.829l9.177,39,128.6-44.715c-5.625-25.268-11.032-48.945-17.26-67.244C213.214,767.163,163.452,670.613,160,663.938c-2.772-4.657-31.447-52.746-63.071-103.075L-2,616.371v-18.71l90.2-50.614C70.99,519.914,53.529,493.223,39.4,473.4,25.571,478.9,11.648,483.886-2,488.431V457.8c7.738-2.672,15.523-5.481,23.281-8.452C14.165,440.325,6.249,430.632-2,420.676V368.487l62.442-28.03a8.158,8.158,0,1,1,6.681,14.886L4.663,383.381c15.932,19,31.706,38,44.483,54.509,33.512-14.859,64.635-32.981,86.707-55.25q5.358-5.407,11.039-11.175l-32.534-28.516a6.237,6.237,0,0,1-1.8-.137,6.344,6.344,0,0,1-3.989-2.946L76.794,286.025a68.956,68.956,0,0,1-9.349,5.718c-10.616,5.363-42.97,2.5-50.35-3.1-2.036-1.544-4.525-3.888-7.408-6.6A137.653,137.653,0,0,0-2,271.85V257.365c6.594,2.466,13.908,9.34,20.386,15.44,2.509,2.362,4.88,4.593,6.323,5.689,4.229,2.734,30.544,5.194,37.017,1.92a54.6,54.6,0,0,0,12.308-8.493,6.347,6.347,0,0,1,9.931,1.282l32.2,54.558c1.872-1.193,4.131-2.629,6.6-4.2-21.711-29.492-41.658-72.062-50.779-94.882C63.239,206.8,59.486,193.548,58,187.4l-14.27-5.785L-2,182.037V165.719l23.933-.221C15.422,148.9,6.765,128.511-2,110.147V78.46c16.707,29.533,33.532,71.7,38.547,84.593l5.57,2.258,12.943-.12,235.631-36.612a8.167,8.167,0,0,1,4.959.722l58.82,27.97a145.041,145.041,0,0,0,6.766-31.079l-18.727.865a8.159,8.159,0,1,1-.751-16.3l20.509-.945a189.463,189.463,0,0,0-1.595-27.257L287.427,60.711l-6.864,9.62a8.159,8.159,0,0,1-13.282-9.478L277.4,46.673c0.086-.125.173-0.25,0.264-0.371l44.068-61.752c-1.835-2.214-3.753-4.363-5.731-6.436L238.829,86.76a8.158,8.158,0,0,1-13.3-9.448L303.915-33.051c-36.435-29.8-88.2-42.216-127.105-47.356l9.646,36.869,17.6,27.816A8.163,8.163,0,0,1,204.64-8.1L179.628,49.349a8.158,8.158,0,1,1-14.961-6.511l23.287-53.488L174.9-31.287,138.692-25.1,119.057,19.848A8.159,8.159,0,0,1,104.1,13.316l21.075-48.234-89.251-.614a8.139,8.139,0,0,1-8.1-8.213,8.157,8.157,0,0,1,8.213-8.1l94.636,0.65a8.148,8.148,0,0,1,8.1,8.214,8.14,8.14,0,0,1-.119,1.342l30.082-5.146-9.3-35.551a354.484,354.484,0,0,0-36.867-1.63,8.158,8.158,0,0,1-8.388-7.923,8.157,8.157,0,0,1,7.917-8.388c1.3-.038,24.556-0.636,56.377,3.519l-1.462-31.681c-0.01-.125-0.015-0.25-0.017-0.375l-3.243-70.262L149-197.936a8.163,8.163,0,0,1-8.526-7.775,8.161,8.161,0,0,1,7.775-8.526l86.069-3.972A88.13,88.13,0,0,1,219.7-242.467c-30.142,9.094-61.663,16.1-99.122,2.041a8.125,8.125,0,0,1-1.171.874L-2-166.609v-19.034l104.587-62.835C64.011-267.117,29.082-275.589-2-278.471V-281H101.363q9.113,3.99,18.289,8.56c38.04,18.966,67.909,9.653,102.5-1.135,8.081-2.521,16.488-5.133,25.251-7.425h93.743c16.409,4.011,33.2,9.188,49.615,14.254,53.662,16.562,104.336,32.2,124.64,3.757q6.583-9.225,13.275-18.011h39.614c2.8,4.411,5.9,8.937,9.421,13.591,3.871,5.118,8.567,10.648,13.11,16,7.163,8.433,13.929,16.4,18.767,24.026q0.956,1.5,1.86,3a565.011,565.011,0,0,1,73.473,6.731L696.99-281H713.6l-12.634,66.29c5.283,1.082,10.484,2.272,15.561,3.574L732.129-281h16.717L732.23-206.592a159.922,159.922,0,0,1,23.4,9.568c21.824,11.259,48.575,17.708,82.309,22.4l13.41-57.09c0.015-.065.031-0.131,0.046-0.195L862.927-281h16.762l-10.942,46.582,27.287,13.4a8.161,8.161,0,0,1,3.728,10.919,8.158,8.158,0,0,1-10.92,3.728L864.918-218.12l-10.7,45.565c13.156,1.54,27.285,2.911,42.5,4.254,8.359-34.5,18.492-75.676,27.649-112.7h29.888C945.035-243.754,934.616-201.457,925.964-165.82ZM1050.29,988.323l0.72,5.11,175.5-27.117,7.87-28.558-185.45,22.066ZM103.306,913.01L73.373,929.744a207.893,207.893,0,0,1,15.518,23l21.967-7.638Zm909.224-783.2c-1.82-3.585-3.54-6.975-5.04-10.192-12.354-26.42-6.99-80.221-6.49-84.959l0.26-5.285-28.3-6.655-5.906,254,75.846-7.991c0.43-60.738-10.7-96.306-21.51-120.612l-11.26,5.905a8.161,8.161,0,0,1-9.43-1.325l-20.527-19.621a8.158,8.158,0,1,1,11.272-11.8l16.295,15.571,6.6-3.463C1013.72,132.16,1013.12,130.969,1012.53,129.805ZM709.764-91.245l2.5-12.913q-2.186-.7-4.367-1.4c-36.654-11.854-55.251-8.114-64.394-2.885-7.355,4.207-9.672,10.157-10.231,11.985,1.533,1.96,9.738,10.118,43.2,15.647,52.887,8.734,145.467,35.475,178.473,45.241,5.13-10.807,9.835-20.931,13.739-29.81-27.8-5.312-84.122-16.966-140.741-33.936l-2.168,11.178a8.152,8.152,0,0,1-9.561,6.455A8.157,8.157,0,0,1,709.764-91.245ZM190.219,327.581L175.4,321.919a6.348,6.348,0,0,1-3.3-2.876c-0.023-.041-2.45-4.116-6.055-5.072-1.977-.52-4.144-0.024-6.65,1.517-3.955,2.433-10.038,6.255-16.356,10.246a91.207,91.207,0,0,0,8.2,8.319c5.477,4.8,11.217,10.236,16.887,15.838Q179.32,338.544,190.219,327.581Zm-15.1,56.565,19.012,16.664,1-1.051c-3.979-4.486-9.979-11.166-16.992-18.68Zm13.211-13.427c6.823,7.3,12.717,13.847,16.825,18.475l15.454-16.283L201.855,357Q194.925,364.013,188.326,370.719Zm43.529-9.662,1.812-1.908-16.946-17.124q-1.677,1.683-3.342,3.357Zm40.334,282.432,40.658-1.876c1.246-2.375,2.407-4.53,3.41-6.36,0.929-3.022,4.249-13.548,9.963-28.985l-13.6,9.775a6.33,6.33,0,0,1-2.626,1.1Zm12.358-24.081a363.508,363.508,0,0,0-39.15,12.425l0.57,12.867,1.859-.087c1.85-1.057,3.639-2.15,5.235-3.263Zm27.079,65.9c16.461,3.842,28.415,6,33.793,6.895l19.465-27.247c0.043-.061.1-0.117,0.142-0.177a6.246,6.246,0,0,1,.62-0.7c0.043-.043.075-0.094,0.12-0.135l14.015-12.89a6.51,6.51,0,0,1,4.972-1.639l29.581,3.172-0.663-18.382a8.16,8.16,0,0,1,.695-3.6l40.011-90.193-20.7-7.842c-6.218,15.77-12.193,30.3-14.605,34.31-2.176,3.614-8.649,14.359-56.242-6.718-20.4,44.979-31.092,80.257-31.2,80.622a8.131,8.131,0,0,1-.665,1.585C322.477,657.8,313.7,676.833,311.626,685.311Zm1.772,13.436c3.281,13.944,8.649,34.707,9.309,37.255q7.758,0.418,15.779.827l2.526-32.494C335.4,703.363,325.9,701.58,313.4,698.747Zm362.321-62.086a6.344,6.344,0,0,1-6.631-6.046l-1.147-24.873-2.628-43.85c-9.079.107-23.8,1.057-33.237,1.752l-0.769,13.2c18.625,0.514,20.3,3.369,21.568,5.517,2.384,4.045,3.621,23.232,3.679,57.067l73.812-.454c-1.222-2.631-2.8-6.037-4.848-10.447-8.586-18.5-2.18-67.172-.033-81.542l-8.67-.948c-0.18-.012-0.355-0.032-0.526-0.058l-95.23-10.414c-7.016,14.457-13.634,28.069-19.715,40.565l17.427-2.31,0.958-16.445a6.345,6.345,0,0,1,5.823-5.957c1.436-.116,35.285-2.831,46.173-2.093a6.3,6.3,0,0,1,5.9,5.951l2.983,49.8,1.152,24.96A6.344,6.344,0,0,1,675.719,636.661Zm228.666,155.39,9.6-35.546a6.287,6.287,0,0,1,.447-1.179l5.842-11.7L899.5,737.167c-3.955,29.665-7.344,54.471-8.3,61.471l9.769,19.21,15.6-9.009L906,798.172A6.34,6.34,0,0,1,904.385,792.051ZM877.943,613.214l76.746,20.347,6.027-25.47L801.3,555.948c-5.982,12.33-10.776,23.693-14.582,33.685Zm-95.57-11.6c-6.492,18.926-8.764,30.607-8.806,30.831a14.249,14.249,0,0,1-.475,1.866c-0.227.694-.466,1.416-0.7,2.127l123.066,33.735c0.79-6.208,1.549-12.244,2.259-17.977a77.946,77.946,0,0,1,4.591-19.4l-27.579-7.312ZM914.708,636.09c-1.351,2.926-3.249,8.4-4.4,17.67-0.78,6.3-1.618,12.953-2.492,19.807l31.1,8.525,8.548,2.443,6.788-37.96ZM935.5,694.313l-29.306-8.034c-1.631,12.637-3.336,25.63-4.991,38.125l24.822,7.716,17.7-35.456Zm-41.664-11.422L768.371,648.5c-0.179.531-.353,1.05-0.534,1.588-4.8,14.3-10.362,30.849-15.56,48.541L888.81,721.286C890.48,708.665,892.2,695.578,893.831,682.891ZM771.062,551.967l-32.951-3.6c-2.8,18.584-7.451,61.094-1.082,74.819l5.362,11.556c1-2.982,1.957-5.86,2.854-8.6C746.432,620.288,752.83,591.539,771.062,551.967Zm7.541-15.589c4.335-8.554,9.185-17.486,14.62-26.705,27.424-46.514,34.759-79.946,36.633-91.978-53.443-31.8-90.685-49.116-121.952-62.441-26.906,56.4-55.035,114.7-79.285,164.722l83.605,9.143,43.1-104.735a8.158,8.158,0,1,1,15.087,6.21L729.109,530.966ZM741.052-17.662l3.565-18.35c-26.586-6.779-52.923-12.886-72.865-16.179-5.476-.9-10.569-1.926-15.363-3.042l-1.312,17.205Zm-87.229-3.895L652.176,0.037,734.1,18.122,737.937-1.63Zm77.532,139.4c5.33,2.486,10.048,4.614,13.671,6.227l33.1-79.522-31.2-6.887Zm53.143-88.6,7.521-18.068-38.19-9.047-3.79,19.508ZM805.121-2.485a8.158,8.158,0,0,1,5.651,11.073L756.9,138.012a8.159,8.159,0,0,1-10.724,4.373c-0.738-.314-9.346-3.986-21.033-9.418l-6.05,14.024c17.893,7.733,35.151,14.648,45.315,18.647,8.281-18.533,14.645-33.373,18.408-43.157C798.677,81.24,820.907,35.159,840.521-5.5l1.72-3.564c-18.135-5.322-49.228-14.27-81.8-22.845l-3.5,18.012ZM759.672,245.636c-12.039,25.844-25.382,54.14-39.286,83.4,18.178,7.761,38.338,16.857,62.345,29.211l23.253-59.632a9.066,9.066,0,0,1,7.5-5.723l31.248-3.292a8.083,8.083,0,0,1-2.026-.7Zm23.122-50.2c-4.979,10.967-10.423,22.821-16.241,35.384l34.039,17.736L806.065,239a8.158,8.158,0,1,1,14.159,8.109l-5.152,9,35.171,18.325a8.118,8.118,0,0,1-.414,14.635l56.234-5.925Zm56.756,112.94,50.4,32.449L905.767,301.4Zm-20.367,6.294-20.308,52.075c19.2,10.328,40.764,22.693,65.474,37.909l19.418-48.407ZM502.677,447.09l-58.139-19.964c-6.132,7.574-12.711,16.007-19.756,25.438a492.877,492.877,0,0,0-31.1,47.4l30.662,11.619c4.37-11.3,8.733-22.779,12.238-32.124a8.157,8.157,0,0,1,10.653-4.716l78.057,31.027a8.158,8.158,0,0,1-6.027,15.163l-70.34-27.959c-2.311,6.115-5.665,14.936-9.318,24.391l28.615,10.842a8.16,8.16,0,0,1,4.567,10.938L430.044,635.5l0.654,18.109,89.325,0.652a8.1,8.1,0,0,1,.164-1.458l8.32-38.585-20.587-2.462c-0.1-.01-0.19-0.021-0.285-0.034l-34.767-4.157-21.1,40.537a8.159,8.159,0,0,1-14.475-7.533L461,595.03a8.238,8.238,0,0,1,8.2-4.334l33.707,4.031,10.745-35.519L483.664,545.96a8.159,8.159,0,0,1,6.593-14.926L526.851,547.2a8.158,8.158,0,0,1,4.511,9.826l-12,39.67,12.6,1.507,16.048-74.424-9.579-2.158a8.159,8.159,0,0,1-5.574-11.463l91.4-192.239c-2.035-1.089-4.065-2.168-6.144-3.325q-9.69-5.389-20.1-11.285L512.289,443.628A8.153,8.153,0,0,1,502.677,447.09Zm9.494-34.565-34.68-23.143c-6.352,6.723-13.6,14.685-21.81,24.318l46.1,15.831ZM434.083,740.384c37.984,0.744,72.07.328,92.979-2.3a318.619,318.619,0,0,1-.641-35.347l-93.953-8.259,1.992,43.154A8.067,8.067,0,0,1,434.083,740.384Zm92.782-46.076a243.161,243.161,0,0,1,3.371-27.279l-99.069-.723,0.893,19.336Zm84.508-311.3L653.322,402c9.257-19.27,18.577-38.726,27.756-57.961-14.652-6.084-28.253-11.85-42.287-18.7Zm34.877,33.7-41.884-18.96L551.974,507.944l7.508,1.691a8.16,8.16,0,0,1,6.182,9.679l-24.646,114.3C554.24,606.579,598.706,515.534,646.25,416.711ZM535.551,795.8c-0.862-4.417-1.772-9.093-2.719-14.067-2.083-10.946-3.594-21.3-4.645-31.049-37.612,4.528-111.691,2.625-177.676-.511l1.419,47.541,0.983,21.3,23.241,125.8,135.021-27.355c15.447-23.4,23.852-38.68,28-51.866C545.343,846.023,542.07,829.239,535.551,795.8ZM418.4,740.017a8.154,8.154,0,0,1-.241-1.63l-3.348-72.524-0.016-.457-28.539-3.059-9.39,8.636,10.808,68.036C397.985,739.408,408.279,739.746,418.4,740.017Zm-43.656-1.512-8.515-53.6-12.319,17.244-2.744,35.3C358.942,737.823,366.827,738.176,374.745,738.505Zm31.26-181.765c2.342-4.806,7.066-16.378,12.411-29.95l-32.824-12.437q-8.111,14.889-15.85,31C385.018,551.977,400.411,556.82,406.005,556.74Zm5.7-113.941c6.8-9.1,13.167-17.288,19.131-24.687l-63.233-63.454-11.363,10.754c-0.045.044-.092,0.088-0.139,0.131l-26.754,25.323,12.624,16.559a4.534,4.534,0,0,1-.742,6.262L327.479,424.9l53.2,64.979A506.2,506.2,0,0,1,411.71,442.8ZM339.289,359l-31.235-36.088-16.92,17.828L319.4,377.816Zm-7.182,50.437-9.377-12.3L312.6,406.722l9.137,11.161Zm-19.326-25.35L284.813,347.4,255.5,378.284l4.871,17.142,18.709,20.555Zm-62.8,18.784a6.319,6.319,0,0,1-1.411-2.536l-3.225-11.349-14.6,15.383,28.5,30.383,7.37-6.975,3.049-3.274Zm-7.574-52.927L267,324.029,253.223,305.96c-9.258,8.977-18.489,18.081-27.528,27.091Zm30.913-32.571,18.812-19.822a7.671,7.671,0,0,1,3.949-4.162l43.979-46.338a30.655,30.655,0,0,1-4.551-14.394c-22.4,17.129-48.993,41.277-75.719,66.968Zm46.02-6.353,31.81,36.753,11.016-10.427a8.158,8.158,0,0,1,11.388.167l67.716,67.953c16.141-19.129,28.785-32,38.287-41.68,14.4-14.664,18.945-19.6,18.653-25.895l-0.38-8.25c-30.81-6.053-99.408-41.11-135.155-64.282Zm45.117-79.759c4.711,4.429,19.859,13.929,38.771,24.556L425.855,216.1c-20.653-7.22-37.983-10.608-49.152-7.71-1.2.354-2.366,0.72-3.489,1.1q-1.674.606-3.457,1.381C365.951,218.907,363.511,228.013,364.457,231.256Zm46.7,28.954c34.125,18.7,76.731,39.16,93.8,41.242a372.619,372.619,0,0,0,30.147-33.41c-34.033-18.6-70.243-37.172-100.617-48.78ZM524.332,323.1l-1.616,1.609a19.272,19.272,0,0,1-8.552,4.909l0.347,7.52c0.631,13.7-7.873,22.36-23.31,38.08q-1.073,1.089-2.2,2.236l31.679,21.14,63.125-103.323c-7.32-4.145-15.014-8.5-22.965-12.957C546.9,300.628,532.385,315.081,524.332,323.1ZM600.359,271.3c11.231,6.361,21.839,12.369,31.852,17.937,21.027,11.695,39.939,19.691,61.356,28.577,7.313-15.384,14.471-30.5,21.363-45.125L592.689,223.061A157.48,157.48,0,0,1,577.111,258.2Q588.55,264.609,600.359,271.3ZM718.8,264.481c5.222-11.1,10.276-21.895,15.11-32.27l-54.924-28.62L670.728,225.6a8.158,8.158,0,1,1-15.277-5.728l11.49-30.643a8.158,8.158,0,0,1,11.409-4.37L740.787,217.4c6.1-13.173,11.776-25.534,16.909-36.856-18.692-7.352-58.926-23.6-86.125-37.683-12.788-6.621-45.114-10.078-65.482-11.466-3.821,35.468-7.975,66.905-11.065,82.238-0.037.182-.084,0.364-0.122,0.546ZM730.99,34.146L650.926,16.469l-4.705,61.713a162.367,162.367,0,0,1,42.727,17.879c8.387,4.937,18.013,9.96,27.2,14.5ZM866.648,7.1C847.276,47.259,825.323,92.769,809.887,132.9c-4.113,10.693-11.133,27.025-20.253,47.385l136.591,97.181a8.112,8.112,0,0,1,2.677,3.273l21.79-2.295,4.223-181.587L895.181,82.213a8.158,8.158,0,0,1,3.883-15.848L955.3,80.147,956.729,18.9,870.717-1.334Zm57.476,292.365-7.485,18.659,30.366,13.225a8.158,8.158,0,1,1-6.515,14.959l-29.927-13.034-32.148,80.141C899.332,426.58,922.39,441.69,948,459.175L980.444,397.5l14.167-63c0.024-.12.05-0.238,0.079-0.355l9.7-43.125ZM1037.46,144.077c11,25.381,21.98,62.1,21.77,122.927l54.92-5.785,0.75-115.112Zm79.04-14.251,2.18-48.785-102.72-3.554c0.57,13.4,2.32,26.685,6.31,35.218,1.39,2.976,3.05,6.25,4.81,9.716,0.84,1.654,1.71,3.361,2.59,5.131Zm-64.25,156.145c-0.25.041-.5,0.061-0.75,0.079l-29.98,3.158-8.81,39.166,38.29,1.61,5.61-44.473Zm134.57-405.416c-50.02-2.5-111.28-5.829-163.6-9.47l-1.54,74.642a1.777,1.777,0,0,1-.01.231l-2.79,57.237,26.21,3.022-4.32-77.432a8.157,8.157,0,0,1,7.69-8.6,8.184,8.184,0,0,1,1.26.025,8.159,8.159,0,0,1,7.34,7.666l4.48,80.236,37.13,4.279-0.9-42.819a8.153,8.153,0,0,1,7.98-8.327,8.343,8.343,0,0,1,.98.038,8.162,8.162,0,0,1,7.35,7.947l0.95,45.047,43.15,4.974,2.91-98.95a8.156,8.156,0,0,1,8.4-7.914c0.18,0,.37.017,0.56,0.035a8.155,8.155,0,0,1,7.35,8.359l-2.95,100.345,18.96,2.186Zm9.9,214.409V94.872c0-.029-0.01-0.057-0.01-0.088l-1.97-42.827a14.371,14.371,0,0,1-4.48.191l-172.8-19.918-0.17,3.453c-0.01.163-.02,0.327-0.04,0.489-0.6,5.435-1.27,14.605-1.46,24.983l111.7,3.864a8.148,8.148,0,0,1,7.86,8.52l-2.54,56.714,65.62,1.72Zm4.61,99.857c-0.01-.109-0.01-0.216-0.01-0.325l-2.14-46.18-19.99-.525,0.22,106.552,24.55-2.586Zm34.03-109.9-0.27-202.037c-9.64-.449-20.36-0.959-31.89-1.522l9.44,204.608Zm48.48,100.115-65.91,15.632,2.28,49.376,64.75-6.821Zm-28.66,323.774,30.23-242.347-0.1-5.046-36.92,3.89a8.023,8.023,0,0,1,.97,4.075l-6.68,236.842C1246.84,507.221,1251.03,508.074,1255.18,508.811Zm-33.9-9.334c1.7,0.7,3.45,1.355,5.21,1.986l6.56-232.54a8.061,8.061,0,0,1,.35-2.037l-12.36,1.3v0.2c0,0.157-.01.312-0.02,0.464l-14.8,225.734A108.711,108.711,0,0,1,1221.28,499.477Zm-31.22-7.916,14.54-221.64-50.89,5.361a8.134,8.134,0,0,1,.41,2.887l-7.53,212.313A232,232,0,0,1,1190.06,491.561Zm-26.96-235.5-0.23-108.7-31.04-.815a8.551,8.551,0,0,1-.62,1.5L1130.48,259.5Zm-25.28,21.527c0-.22.06-0.426,0.08-0.641l-64.62,6.808-5.92,46.914,27.84,1.171c0.1,0,.21.006,0.31,0.013l40.32,1.694Zm-50.26,220.033c3.34-.406,7.53-1.035,12.37-1.765,8.34-1.253,18.75-2.816,30.28-4.02l5.04-141.981-34.49-1.45c-7.9,23.141-36.92,109.559-38.6,134.394-0.19,2.739-.43,5.364-0.72,7.9C1064.1,493.312,1072.16,499.5,1087.56,497.622Zm-3.8-149.932-74.69-3.137-12.944,57.576a8.439,8.439,0,0,1-.283.972l62.8,23.485C1067.34,396.687,1078.22,364.016,1083.76,347.69Zm-29.56,94.655-65.94-24.659-26.717,50.791q21.781,15.053,45.987,32.371a350.711,350.711,0,0,0,30.16,19.118c3.25-7.966,6.99-20.556,8.19-38.266C1046.45,473.233,1049.72,458.846,1054.2,442.345Zm-44.02,168.233,28.28-57.105a423.628,423.628,0,0,1-47.821-29.041c-53.506-38.312-97.444-67.656-134.364-90.644-4.3,18.886-14.4,50.489-38.065,90.617q-5.069,8.6-9.43,16.823l180.026,58.883c0.168,0.055.334,0.116,0.5,0.182A231.7,231.7,0,0,1,1010.18,610.578ZM990.751,696.9l14.739-70.351c-9.537-5.2-17.1-9.022-22.019-11.02l-10.177-3.328L959.731,688.04Zm-2.609,12.454-32.007-9.147L938.3,735.938l16.643,5.173a6.346,6.346,0,0,1,4.454,5.767l0.864,18.709,14.824,6.113ZM964.6,781.1l-12.911-5.323a6.348,6.348,0,0,1-3.92-5.574l-0.844-18.3-14.37-4.467-6.482,12.985-8.486,31.408,10.346,10.443ZM931.452,1006.77l104.678-10.956-0.29-6.143-17.63-126.86c-6.48.728-12.57,1.436-17.84,2.05a280.265,280.265,0,0,0-32.137,5.886c3.074,11.772,7.282,32.2,2.339,41.115a10.705,10.705,0,0,1-6.594,5.359c-8.612,2.372-34.608,3.373-47.788,3.736Zm-54.205,15.84,41.826-12.97L902.4,915.9a6.347,6.347,0,0,1,6.135-7.455c16.35-.29,42.8-1.384,51.18-3.236,1.473-3.888-.229-17.5-3.793-31.322-38.644,10.49-75.874,26.208-89.666,32.813ZM864.984,893.287A627.208,627.208,0,0,1,950.67,862.2l-23.834-40.441L861.764,859.33ZM744.4,909.84c39.081-2.473,93.332-7.419,111.828-12.9l-3.376-35.6c-14.3,1.032-61.949,4.476-112.419,8.163C741.7,882.041,743.034,895.676,744.4,909.84Zm-9.018-87.33c0.988,8.28,2.135,18.762,3.386,30.754,53.723-3.925,104.392-7.583,115.377-8.376L889.963,824.2l-9.072-17.84L734.791,816.5C734.953,818.518,735.142,820.525,735.379,822.51Zm143.677-28.74c1.351-9.88,4.5-33.009,8.082-59.9L748.787,710.915c-8.277,30.205-14.829,62.867-14.543,92.9ZM736.732,651.624l-86.486.532a6.349,6.349,0,0,1-6.385-6.361c0.054-21.923-.607-47.561-1.783-55.569-6.957-1.139-27.606-.761-47.779.371-16.706,34.29-28.2,57.77-30.878,63.227a95.8,95.8,0,0,0-2.654,9.206l169.224,9.278C732.272,665.107,734.544,658.189,736.732,651.624Zm-10.608,33.182L558.234,675.6c-2.732,16.613-4.725,42.239-.759,75.745l152.387,0.318C713.8,728.546,719.807,705.742,726.124,684.806ZM666.049,944.317l43.784-9.612,7.111-7.23c-1.875-19.727-3.734-38.84-5.455-55.85-22.331,1.639-44.053,3.243-62.539,4.627ZM644.915,860.19c18.975-1.423,41.609-3.1,64.906-4.806-1.2-11.455-2.3-21.481-3.247-29.439-0.607-5.094-.98-10.27-1.18-15.5l-70.382,10.323Zm60.355-62.55a289.366,289.366,0,0,1,2.649-33.288l-86.743-.182,13.137,43.878Zm-73.2,63.517L607.7,764.142l-48.481-.1c0.621,4,1.315,8.076,2.113,12.267,0.937,4.929,1.84,9.562,2.694,13.939,5.821,29.858,9.223,49.186,6.526,68.306,6.814,3.2,16.135,6.37,25.067,5.494C599.829,863.635,613.312,862.577,632.071,861.157ZM560.1,997.033l67.8-6.374-16.763-56.346-52.3,9C562.406,959.092,561.1,984.244,560.1,997.033Zm-6.253-65.743,39.7-6.829-10.73-44.872a76.5,76.5,0,0,1-16.03-4.873c-4.255,13.195-11.678,27.58-23.359,46.195A36.587,36.587,0,0,1,553.847,931.29Zm-61.1,72.07,54.527-5.121c1.627-19.122,2.216-47.8-2.445-57.165a24.556,24.556,0,0,0-8.272-9.458c-9.12,13.922-20.331,30.092-34.01,49.524q-5.482,7.788-10.606,15.037Zm-69.176,10.66c8.695-1.79,16.914-3.46,23.522-4.8,9.4-13.157,19.934-28.016,31.733-44.777,8.45-12,15.829-22.581,22.278-32.02L411.6,950.56Zm-54.877,11.9c8.32-2.12,27.3-6.17,46-10.06l-11.976-63.5-49.605,10.052C357.967,988.872,364.625,1017.5,368.693,1025.92ZM261.706,819.607c7.19,21.124,13.092,47.681,19.34,75.8,4.575,20.583,9.534,42.895,15.577,65.516l67.09-13.592-23.359-126.44a6.206,6.206,0,0,1-.1-0.859l-1.007-21.836L337.8,749.547c-47.665-2.41-89.363-5.3-107.3-6.6C242.233,768.906,253.792,796.354,261.706,819.607Zm-40.681-97.249,4.646,7.505c9.77,0.718,40.778,2.94,79.939,5.187-2.513-9.791-7.752-30.425-9.9-40.549q-3.709-.939-7.624-1.972c-23.677-6.263-60.752-1.113-80.165,2.377C212.034,703.36,216.47,712.623,221.025,722.358ZM199.374,677.5q1.329,2.676,2.745,5.544c19.078-3.646,61.338-10.166,89.218-2.788,1.581,0.418,3.128.82,4.658,1.214,1.893-7.877,6.029-17.77,10.34-26.857l-54.942,2.536c-0.751.41-1.5,0.813-2.243,1.209a181.316,181.316,0,0,1-36.97,14.163c-5.659,1.555-9.806,2.6-12.886,3.257Zm-46.91-82.133,92.217-59.611a6.345,6.345,0,0,1,9.1,2.461l18.01,35.527a6.344,6.344,0,1,1-11.318,5.737l-14.825-29.241-86.575,55.964c4.544,7.464,8.659,14.263,12.211,20.152l79.529-48.3A6.346,6.346,0,0,1,257.4,588.91l-79.574,48.325c4.144,6.908,6.749,11.289,7.316,12.243,0.141,0.234.272,0.472,0.4,0.713,0.456,0.877,3.065,5.9,7.105,13.9a212.751,212.751,0,0,0,40.928-12.337c0-.046-0.007-0.092-0.008-0.138l-1.054-23.776a6.344,6.344,0,0,1,4.014-6.185c8.792-3.463,50.721-19.461,70.083-17.62l28.042-19.542c4.49-11.108,9.784-23.5,15.9-36.689q10.386-22.417,21.507-42.7l-71.341-87.13-38.149,36.106a8.08,8.08,0,0,1-5.139,2.183l-0.888.954c-0.107.115-.22,0.227-0.335,0.333-0.9.834-18.83,17.3-39.092,28.093,3.835,4.88,5.766,9.776,5.75,14.6-0.024,7.984-5.191,13.043-7.674,15.474-0.26.254-.487,0.47-0.655,0.653a17.162,17.162,0,0,1-12.628,5.046c-3.986-.039-9.873-1.4-15.274-7.6a17.494,17.494,0,0,1-3.8-16.264c2.015-7.863,8.8-14.963,17.285-18.085,21.47-7.9,45.125-29.1,47.315-31.09l1.521-1.633a8.08,8.08,0,0,1,2.4-4.516l1.317-1.246L224.5,410.95l-50.012,52.7-4.805,90.533c0,0.081-.029.155-0.037,0.235a4.539,4.539,0,0,1-.072.465c-0.031.145-.068,0.285-0.112,0.424s-0.093.271-.15,0.4a4.023,4.023,0,0,1-.194.4,4.22,4.22,0,0,1-.226.368c-0.081.119-.166,0.234-0.257,0.344s-0.2.224-.3,0.33-0.209.2-.321,0.288-0.227.177-.349,0.258a4.469,4.469,0,0,1-.413.243c-0.069.036-.128,0.084-0.2,0.118L137.779,571.5C142.921,579.811,147.852,587.831,152.464,595.371ZM210.173,500.2c0.009-2.478-1.744-5.6-5.076-9.05l-0.6.223c-4.467,1.645-8.409,5.565-9.372,9.323a4.863,4.863,0,0,0,1.075,4.778,8.378,8.378,0,0,0,5.355,3.223c0.088,0.009.178,0.015,0.266,0.02a5.278,5.278,0,0,0,3.336-.9c0.3-.33.695-0.722,1.154-1.171C208.342,504.658,210.165,502.669,210.173,500.2Zm-77.209,63.538,27.805-12.775,4.1-77.184-6.057,6.382c-0.106.112-.223,0.209-0.332,0.317a4.52,4.52,0,0,1-.524,6.232L110.7,528.31C118.256,540.187,125.771,552.166,132.964,563.738ZM66.685,461.745C78.5,478.6,92.091,499.224,105.764,520.578l40.9-36a14.488,14.488,0,0,1-8.465-3.98l-37.42-36.246C89.838,450.588,78.4,456.374,66.685,461.745Zm59.338-33.329,21.832,21.148,40.026-42.173-19.137-16.773c-4.216,4.279-8.325,8.442-12.288,12.441A224.235,224.235,0,0,1,126.023,428.416Zm27.241-63.422,4.685-4.763c-5.5-5.439-11.036-10.685-16.268-15.274a109.752,109.752,0,0,1-11.019-11.376c-2.9,1.84-5.527,3.513-7.672,4.879Zm-18.226-49.211c6.791-4.294,13.464-8.489,17.716-11.1,6.913-4.252,12.819-3.966,16.545-2.976,6.366,1.687,10.534,6.3,12.551,9.094l18.179,6.948c0.614-.614,1.22-1.215,1.833-1.827l-45.768-60.98-44.95,22.449c-0.024.012-.049,0.017-0.073,0.028A332.962,332.962,0,0,0,135.038,315.783ZM70.912,179.239a7.281,7.281,0,0,1,.506,1.679c0.022,0.126,2.3,13.018,14.036,42.381,5.159,12.907,12.675,29.486,21.37,46.15,0.092-.055.172-0.122,0.269-0.17l43.47-21.71-3.758-5.009a8.157,8.157,0,0,1,1.932-11.639l10.539-7.181a4.446,4.446,0,0,1-1.242-3.567l5.827-55.375Zm118.593-18.426-16.377,2.545-5.777,54.88L197.785,197.5ZM164.982,239.6l48.565,64.709q11.21-11.091,22-21.533l-25.653-33.649a4.532,4.532,0,0,1,.68-6.21l9.878-8.347-8.522-12.156c-0.049-.069-0.1-0.138-0.147-0.208l-6.874-9.809Zm125.837-94.525L205.666,158.3l8.9,39.449,6.055,8.637L303.2,150.957Zm29.514,14.035-90.341,60.647,11.642,16.607,13.176-10.088a8.159,8.159,0,0,1,9.919,12.957L244.8,254.487a8.159,8.159,0,0,1-11.64-1.795l-7.482-10.673-5.96,5.036,22.4,29.386c43.578-41.789,81.31-74.182,109.442-88.881l0.022-.015a66.648,66.648,0,0,1,15.055-6.421ZM297.447,46.673l60.067,17.912a238.191,238.191,0,0,0-23.06-61.171q-1.308-2.441-2.722-4.787Zm23.441-86.511a141.138,141.138,0,0,1,17.083,18.656,8.289,8.289,0,0,1,.916,1.221A127.307,127.307,0,0,1,348.833-4.3c45.311,84.494,27.576,149.47,20.482,168.628l19.493,9.27c5.089-2.89,9.078-7.185,12.184-15,11.707-29.462,37.7-138.883,44.7-203.358,0-.035.01-0.068,0.014-0.1l-20.585-.449L402.4,147.2a8.159,8.159,0,0,1-16.2-1.911l22.54-190.956-88.3-1.921A29.772,29.772,0,0,0,320.888-39.838ZM439.9-152.682l-2.145.349L427.046-61.59,449.752-61.1a60.011,60.011,0,0,1,10.007-16.565c-8.9-3.758-15.793-9.865-16.652-19.839A396.221,396.221,0,0,1,439.9-152.682Zm-244.976,58.4c6.293,1.078,12.8,2.346,19.438,3.835,36.163,8.117,66.512,20.8,90.213,37.513q0.21-1.719.508-3.512a8.2,8.2,0,0,1,.3-1.73c2.408-13.069,7.99-29.06,15.682-49.2L193.742-119.969ZM327.15-123.177c10.136-27.435,9.254-48.03,7.86-57.761a160.268,160.268,0,0,1-26.559-.292,132.738,132.738,0,0,1-15.681-2.46l-4.425,56.677ZM190.055-199.832l2.926,63.391,7.563,0.749,0.967-64.669Zm27.785-1.282-1,67.032,55.266,5.463,4.667-59.778a103.682,103.682,0,0,1-26.112-14.232ZM382.2-239.027c-23.605-7.287-48.013-14.819-69.7-18.286-28.079-4.492-52.136,2.25-77.18,10.018A76.349,76.349,0,0,0,257.339-218a8.207,8.207,0,0,1,2.006,1.612,87.943,87.943,0,0,0,27.687,14.381,7.823,7.823,0,0,1,1.518.468c13.819,4.135,30.95,6.012,52.087,3.73a8.167,8.167,0,0,1,8.625,5.56c0.4,1.2,9.065,28.578-5.381,70.729l2.377,0.235a8.159,8.159,0,0,1,7.316,8.922,8.158,8.158,0,0,1-8.911,7.317h-0.011l-6.742-.666c-6.456,16.784-11.517,30.681-14.51,41.872l87.258,1.9,11.615-98.405a8.158,8.158,0,0,1,6.788-7.1l11.738-1.914c1.571-17.058,5.318-32.933,13.016-42.378,2.273-2.789,4.507-5.333,6.7-7.7C435.819-222.484,408.814-230.814,382.2-239.027ZM427.95,169.31a64.928,64.928,0,0,1-8,14.65c35.413,9.791,80.216,31.92,131.743,60.151,6.884-11.6,12.42-23.931,14.894-36.212,1.818-9.023,4.266-25.534,6.877-46.582L544.6,154.64l-2.656,21.5a8.158,8.158,0,0,1-16.194-2l3.766-30.493a8.163,8.163,0,0,1,9.937-6.949l35.963,8.319c2.717-23.569,5.486-51.1,7.812-79.509,3.519-42.963,4.749-72.665,4.8-92.374L474.55-41.753c0,0.043-.013.084-0.017,0.127-1.171,10.781-2.885,22.949-4.988,35.889L562.124,4.1a8.159,8.159,0,0,1-1.653,16.233l-0.072-.007L466.8,10.38C455.95,71.357,438.345,143.15,427.95,169.31ZM587.732-43.358a103.433,103.433,0,0,0-1.2-12.991c-10.007-3.916-37.075-12.48-62.237-14.934-4.034-.393-7.549-0.572-10.649-0.607-2.451.1-4.882,0.181-7.269,0.219-7.11.567-10.691,2.045-12.211,2.9a42.773,42.773,0,0,0-13.494,11.359ZM568.708-232.634c-4.8-5.656-9.77-11.5-14.138-17.277-2.251-2.977-4.35-5.918-6.348-8.831q-4.638,6.207-9.216,12.6a66.5,66.5,0,0,1-10.74,11.818c17.189,6.643,35.813,12.054,45.494,10.821,0.73-.092,1.533-0.179,2.4-0.262C573.819-226.616,571.291-229.591,568.708-232.634Zm25.115,37.017a158.906,158.906,0,0,0-16.416.9c-23.6,2.983-61.917-12.955-78.059-20.327-5.141,3.414-13.623,10.071-23.047,21.634-8.534,10.471-9.091,53.818-4.779,89.379,5.394,2.223,17.7,3.564,33.551,3.363q3.93-.269,8.235-0.237a306.159,306.159,0,0,0,46.82-5.711c29.553-6,41.012-13.449,43.347-16.176C604.8-142.3,606.278-167.668,593.823-195.617ZM607.8-82.477A28.634,28.634,0,0,1,604.84-89.9a131.427,131.427,0,0,1-12.368,4.786c13.552,4.82,15.591,7.487,17.169,9.557,4.4,5.767,12.591,16.505,2.925,138.094-1.364,17.16-3.009,35.136-4.779,52.6,19.5,1.309,54.956,4.776,71.284,13.227,7.512,3.889,16.154,7.991,25.094,12.034l6.241-14.467c-9.892-4.859-20.454-10.345-29.735-15.81-24.584-14.471-44.031-17.287-44.2-17.311a8.158,8.158,0,0,1-7.063-8.708L640.371-59.786C624.02-65.453,613.249-72.957,607.8-82.477ZM742.33-171.246c-28.6-14.756-78.587-21.491-117.041-23.615,7.546,22.113,8.482,42.323,7.933,59.1,12.136-5.726,26.984-7.744,44.422-6.042a187.717,187.717,0,0,1,39.185,8.644c65.225,21.1,134.783,35.088,162.309,40.233,0.141-.583.268-1.145,0.366-1.662,1.243-6.546,5.077-23.127,10.349-45.2C825.393-145.584,779.3-152.17,742.33-171.246Zm165.675,82.07A111.309,111.309,0,0,1,902.65-71.7c-0.1.3-.215,0.6-0.338,0.9-4.418,11.56-10.931,26.011-18.789,42.675L1002.7-.092l2.67-54.63,1.55-75.36c-11.989-.883-23.357-1.781-33.809-2.687q-20.949-1.816-39.974-3.352c-4.78-.394-9.455-0.779-14.061-1.162C913.4-113.6,909.26-95.788,908.005-89.176Z"/>
</svg>
