<svg xmlns="http://www.w3.org/2000/svg" viewBox="0 0 70.47 40.96"><defs><style>.cls-1{fill:#fff;}</style></defs><title>people-w</title><g id="Слой_2" data-name="Слой 2"><g id="Слой_1-2" data-name="Слой 1"><path class="cls-1" d="M70.47,25.58c0,4.53-10,6.28-17.28,5a19.06,19.06,0,0,0-6.28-9,15.09,15.09,0,0,1,6.34-6.75,8.14,8.14,0,0,1-3.52-6.67h0a8.15,8.15,0,1,1,13,6.53C66.94,16.93,70.46,21.77,70.47,25.58Z"/><path class="cls-1" d="M50.58,34.18c0,2.06-1.66,3.66-4.22,4.79-6,2.64-16.85,2.68-22.6,0-2.32-1.1-3.81-2.64-3.81-4.65a11.94,11.94,0,0,1,1-4.55,17.78,17.78,0,0,1,3.48-5.32,19.12,19.12,0,0,1,4.68-3.66,9.92,9.92,0,0,1-1.73-1.51,10.15,10.15,0,0,1-2.66-6.82h0a10.18,10.18,0,1,1,16.2,8.17,20.55,20.55,0,0,1,8.56,9A11.15,11.15,0,0,1,50.58,34.18Z"/><path class="cls-1" d="M23.53,21.68a19.07,19.07,0,0,0-6.22,9C10.08,32,0,30.33,0,25.81,0,22,3.49,17.12,7.71,14.88A8.1,8.1,0,0,1,4.35,8.33h0A8.15,8.15,0,1,1,17.16,15,15.12,15.12,0,0,1,23.53,21.68Z"/></g></g></svg>