<?xml version="1.0" encoding="utf-8"?>
<!-- Generator: Adobe Illustrator 21.1.0, SVG Export Plug-In . SVG Version: 6.00 Build 0)  -->
<svg version="1.1" id="Слой_1" xmlns="http://www.w3.org/2000/svg" xmlns:xlink="http://www.w3.org/1999/xlink" x="0px" y="0px"
	 viewBox="0 0 60 60" style="enable-background:new 0 0 60 60;" xml:space="preserve">
<style type="text/css">
	.st0{display:none;fill:#FFFFFF;stroke:#000000;stroke-miterlimit:10;}
	.st1{fill:none;stroke:#D7D9E7;stroke-width:3.2762;stroke-miterlimit:10;}
	.st2{fill:#E79A4B;}
	.st3{clip-path:url(#SVGID_2_);}
	.st4{fill:#D2741E;}
	.st5{fill:#743B0E;}
	.st6{fill:#FFFFFF;}
	.st7{fill:#EAD3BD;}
	.st8{fill:#CFCFD0;stroke:#36393C;stroke-width:0.56;stroke-miterlimit:10;}
</style>
<rect x="0.2" y="-0.1" class="st0" width="60.1" height="60.1"/>
<title>road_bus</title>
<circle class="st1" cx="30" cy="30" r="15.9"/>
<circle class="st1" cx="30" cy="30" r="20.1"/>
<path id="_Обтравочный_контур_4" class="st2" d="M37.8,6.6c0-0.5-0.6-0.6-0.6-0.6S37,4.4,37,3.4
	c-0.9,0-1.2,0-1.3-0.4c-0.4-1.2-0.5-1.4-0.3-1.8s0.3-0.2,1.2-0.2c-0.3-0.7-0.7-1-1.8-1l-4.6,0c-1.9,0-5.2-0.1-5.8-0.1
	s-0.8,0.1-1.1,1.3c-0.3,1.8-0.4,3.6-0.4,5.3c0,0-0.5,0.2-0.5,0.4s2,0.2,2,0.2c-0.1-0.5,0.1-1,0.6-1.2c0.5-0.2,1.2-0.1,1.6,0.3
	c0.4,0.3,0.2,1,0.2,1h6.1c0.1-0.3,0.2-0.6,0.5-0.9C33.8,6,34.6,6.1,35,6.7c0.1,0.2,0.2,0.4,0.2,0.7c0.7,0.1,1.5,0,2.2-0.1
	C37.8,7,37.8,7.1,37.8,6.6z"/>
<g>
	<defs>
		<path id="SVGID_1_" d="M37.8,6.6c0-0.5-0.6-0.6-0.6-0.6S37,4.4,37,3.4c-0.9,0-1.2,0-1.3-0.4c-0.4-1.2-0.5-1.4-0.3-1.8
			s0.3-0.2,1.2-0.2c-0.3-0.7-0.7-1-1.8-1l-4.6,0c-1.9,0-5.2-0.1-5.8-0.1s-0.8,0.1-1.1,1.3c-0.3,1.8-0.4,3.6-0.4,5.3
			c0,0-0.5,0.2-0.5,0.4s2,0.2,2,0.2c-0.1-0.5,0.1-1,0.6-1.2c0.5-0.2,1.2-0.1,1.6,0.3c0.4,0.3,0.2,1,0.2,1h6.1
			c0.1-0.3,0.2-0.6,0.5-0.9C33.8,6,34.6,6.1,35,6.7c0.1,0.2,0.2,0.4,0.2,0.7c0.7,0.1,1.5,0,2.2-0.1C37.8,7,37.8,7.1,37.8,6.6z"/>
	</defs>
	<clipPath id="SVGID_2_">
		<use xlink:href="#SVGID_1_"  style="overflow:visible;"/>
	</clipPath>
	<g class="st3">
		<rect x="21.9" y="4" class="st4" width="16.3" height="2.7"/>
		<polygon class="st5" points="38.1,7.9 21.9,7.9 21.9,6.7 34.2,6.7 38.1,5.9 		"/>
		<polygon class="st6" points="22.7,3.8 37.8,3.8 37.6,4.2 22.6,4.2 		"/>
	</g>
</g>
<path class="st7" d="M35.3,1.3c-0.2,0.3,0,0.5,0.3,1.8C35.7,3.4,36,3.4,37,3.4c0-0.6-0.1-1.1-0.3-1.7c-0.1-0.2-0.1-0.4-0.2-0.6
	C35.6,1.1,35.4,1.1,35.3,1.3z"/>
<path class="st7" d="M30.1,1h2.1c0.1,0,0.2,0.1,0.2,0.2V3c0,0.1-0.1,0.2-0.2,0.2h-2.1c-0.1,0-0.2-0.1-0.2-0.2V1.3
	C29.9,1.1,30,1,30.1,1z"/>
<path class="st7" d="M27.1,1h2.1c0.1,0,0.2,0.1,0.2,0.2V3c0,0.1-0.1,0.2-0.2,0.2h-2.1c-0.1,0-0.2-0.1-0.2-0.2V1.3
	C26.9,1.1,27,1,27.1,1z"/>
<path class="st7" d="M24.1,1h2.1c0.1,0,0.2,0.1,0.2,0.2V3c0,0.1-0.1,0.2-0.2,0.2h-2.1c-0.1,0-0.2-0.1-0.2-0.2V1.3
	C23.9,1.1,24,1,24.1,1z"/>
<ellipse class="st5" cx="33.6" cy="4.8" rx="0.6" ry="0.2"/>
<path class="st7" d="M34.8,1.4C34.6,1,34.3,1.1,33,1.1v2.2c1.7,0,1.9,0.1,2-0.2S35.1,2.6,34.8,1.4z"/>
<circle class="st8" cx="25.7" cy="7.3" r="1.2"/>
<circle class="st8" cx="34.1" cy="7.3" r="1.2"/>
</svg>
