<?xml version="1.0" encoding="utf-8"?>
<!-- Generator: Adobe Illustrator 21.1.0, SVG Export Plug-In . SVG Version: 6.00 Build 0)  -->
<svg version="1.1" id="Слой_1" xmlns="http://www.w3.org/2000/svg" xmlns:xlink="http://www.w3.org/1999/xlink" x="0px" y="0px"
	 viewBox="0 0 1280 1024" style="enable-background:new 0 0 1280 1024;" xml:space="preserve">
<style type="text/css">
	.st0{fill:#D7D9E7;}
	.st1{fill:#746438;}
	.st2{fill:#668A4C;}
	.st3{fill:#89B06F;}
	.st4{fill:none;}
	.st5{fill:#E79A4B;}
	.st6{clip-path:url(#SVGID_2_);}
	.st7{fill:#D2741E;}
	.st8{fill:#743B0E;}
	.st9{fill:#FFFFFF;}
	.st10{fill:#EAD3BD;}
	.st11{fill:#CFCFD0;stroke:#36393C;stroke-width:2.06;stroke-miterlimit:10;}
	.st12{clip-path:url(#SVGID_4_);}
	.st13{clip-path:url(#SVGID_6_);}
</style>
<title>road_2</title>
<g id="дорога">
	<path class="st0" d="M1213,339.3L1213,339.3c0-0.2,0-0.3,0-0.5v-1.5l0,0c-0.4-17.5-6.5-34.4-17.5-48.1c-0.9-1.2-1.9-2.3-2.9-3.4
		c-0.5-0.6-1-1.1-1.5-1.6l-1.6-1.6l-1.6-1.6c-0.6-0.5-1.1-1-1.7-1.5c-1.1-1-2.2-2-3.4-2.9c-4.7-3.7-9.8-7-15.2-9.6
		c-10.6-5.1-22.1-7.8-33.8-7.9H0v21.2h1132.3c4.5,0.1,9.1,0.6,13.5,1.6c4.3,1,8.5,2.4,12.5,4.3c4,1.9,7.7,4.3,11.2,7.1
		c0.9,0.7,1.7,1.4,2.5,2.1c0.4,0.4,0.8,0.8,1.2,1.1l1.2,1.1l1.1,1.2c0.4,0.4,0.8,0.8,1.1,1.2c0.7,0.9,1.5,1.6,2.1,2.5
		c2.8,3.5,5.1,7.2,7.1,11.2c3.8,8,5.8,16.7,6,25.5l0,0v79.6l0,0c-0.2,8.8-2.2,17.5-6,25.5c-1.9,4-4.3,7.7-7.1,11.2
		c-0.7,0.9-1.4,1.7-2.1,2.5c-0.3,0.4-0.8,0.8-1.1,1.2l-1.1,1.2l-1.2,1.1c-0.4,0.4-0.8,0.8-1.2,1.1c-0.8,0.7-1.7,1.5-2.5,2.1
		c-3.5,2.8-7.2,5.1-11.2,7.1c-4,1.9-8.2,3.4-12.5,4.3c-4.4,1-9,1.6-13.5,1.6H813v0.2h-31.3c-2.7,0-5.5,0.2-8.2,0.5
		c-3.1,0.5-6.1,1.2-9,2.2c-5.9,1.9-11.4,4.7-16.4,8.4c-5,3.6-9.4,8-13,13c-3.6,5-6.5,10.5-8.4,16.4c-1,2.9-1.7,5.9-2.2,9
		c-0.3,2.1-0.5,4.3-0.5,6.4l0,0v2.3c0,0.2,0,0.3,0,0.5l0,0v342.6l0,0c0,0.2,0,0.3,0,0.5v0.5l0,0c0,2.7,0.2,5.5,0.5,8.2
		c0.5,3.1,1.2,6.1,2.2,9c1.9,5.9,4.7,11.4,8.4,16.4c3.6,5,8,9.4,13,13c5,3.6,10.5,6.4,16.4,8.4c2.9,1,5.9,1.7,9,2.2
		c2.7,0.4,5.5,0.6,8.2,0.5H799v0.2h79.3c4.5,0.1,9.1,0.6,13.5,1.6c4.3,1,8.5,2.4,12.5,4.3c4,1.9,7.7,4.3,11.2,7.1
		c0.9,0.7,1.7,1.4,2.5,2.1c0.4,0.3,0.8,0.8,1.2,1.1l1.2,1.1l1.1,1.2c0.4,0.4,0.8,0.8,1.1,1.2c0.7,0.8,1.5,1.7,2.1,2.5
		c2.8,3.5,5.1,7.2,7.1,11.2c3.8,8,5.8,16.7,6,25.5l0,0v26.8H959v-26.7l0,0c0-0.2,0-0.3,0-0.5v-1.5l0,0c-0.4-17.5-6.5-34.4-17.5-48.1
		c-0.9-1.2-1.9-2.3-2.9-3.4c-0.5-0.6-1-1.1-1.5-1.7l-1.6-1.6l-1.6-1.6c-0.5-0.5-1.1-1-1.7-1.5c-1.1-1-2.2-2-3.4-2.9
		c-4.7-3.7-9.8-7-15.2-9.6c-10.6-5-22.1-7.7-33.8-7.9H858v-0.2h-75.3c-2-0.1-3.9-0.4-5.8-0.8c-1.9-0.3-3.8-0.8-5.7-1.4
		c-3.7-1.2-7.2-3-10.3-5.3c-3.2-2.3-5.9-5.1-8.2-8.2c-2.3-3.1-4.1-6.6-5.3-10.3c-0.6-1.8-1.1-3.7-1.4-5.7c-0.4-1.9-0.7-3.9-0.8-5.8
		l0,0V536.7l0,0c0.1-2,0.4-3.9,0.8-5.8c0.3-1.9,0.8-3.8,1.4-5.7c1.2-3.7,3-7.2,5.3-10.3c2.3-3.2,5.1-5.9,8.2-8.2
		c3.1-2.3,6.6-4.1,10.3-5.3c1.8-0.6,3.7-1.1,5.7-1.4c1.9-0.4,3.9-0.7,5.8-0.8H1098V499h35.8c17.8-0.2,35.1-6.4,49-17.5
		c1.2-0.9,2.3-1.9,3.4-2.9c0.6-0.5,1.1-1,1.7-1.5l1.6-1.6l1.6-1.6c0.5-0.5,1-1.1,1.5-1.6c1-1.1,2-2.2,2.9-3.4
		c3.7-4.7,7-9.8,9.6-15.2c4.9-10.3,7.6-21.5,7.9-32.9l0,0v-1.5c0-0.2,0-0.3,0-0.5l0,0V339.3z M930.3,982.5
		c-1.9-5.9-4.7-11.4-8.4-16.4c-3.6-5-8-9.4-13-13c-5-3.6-10.5-6.4-16.4-8.4c-2.9-1-5.9-1.7-9-2.2c-2.7-0.4-5.5-0.6-8.2-0.5H858v-0.2
		h-79.3c-4.5-0.1-9.1-0.6-13.5-1.6c-4.3-1-8.5-2.4-12.5-4.3c-4-1.9-7.7-4.3-11.2-7.1c-0.9-0.7-1.7-1.4-2.5-2.1
		c-0.4-0.3-0.8-0.8-1.2-1.1l-1.2-1.1l-1.1-1.2c-0.4-0.4-0.8-0.8-1.1-1.2c-0.7-0.8-1.5-1.7-2.1-2.5c-2.8-3.5-5.1-7.2-7.1-11.2
		c-3.8-8-5.8-16.7-6-25.5l0,0V533.2l0,0c0.2-8.8,2.2-17.5,6-25.5c1.9-4,4.3-7.7,7.1-11.2c0.7-0.9,1.4-1.7,2.1-2.5
		c0.3-0.4,0.8-0.8,1.1-1.2l1.1-1.2l1.2-1.1c0.4-0.4,0.8-0.8,1.2-1.1c0.8-0.7,1.7-1.5,2.5-2.1c3.5-2.8,7.2-5.1,11.2-7.1
		c4-1.9,8.2-3.4,12.5-4.3c4.4-1,9-1.6,13.5-1.6H1098v-0.2h31.3c2.7,0,5.5-0.2,8.2-0.5c3.1-0.5,6.1-1.2,9-2.2
		c5.9-1.9,11.4-4.7,16.4-8.4c5-3.6,9.4-8,13-13c3.6-5,6.5-10.5,8.4-16.4c1-2.9,1.7-5.9,2.2-9c0.4-2.7,0.6-5.5,0.6-8.2l0,0v-0.5
		c0-0.1,0-0.3,0-0.5l0,0v-72.6l0,0c0-0.1,0-0.3,0-0.5v-0.5l0,0c0-2.7-0.2-5.5-0.6-8.2c-0.5-3.1-1.2-6.1-2.2-9
		c-1.9-5.9-4.7-11.4-8.4-16.4c-3.6-5-8-9.4-13-13c-5-3.6-10.5-6.5-16.4-8.4c-2.9-1-5.9-1.7-9-2.2c-2.7-0.4-5.5-0.6-8.2-0.5H0v21.1
		h1128.3c2,0.1,3.9,0.4,5.8,0.8c1.9,0.3,3.8,0.8,5.7,1.4c3.7,1.2,7.2,3,10.3,5.3c3.2,2.3,5.9,5.1,8.2,8.2c2.3,3.1,4.1,6.6,5.3,10.3
		c0.6,1.8,1.1,3.7,1.4,5.7c0.4,1.9,0.7,3.9,0.8,5.8l0,0v72.6l0,0c-0.1,2-0.4,3.9-0.8,5.8c-0.3,1.9-0.8,3.8-1.4,5.7
		c-1.2,3.7-3,7.2-5.3,10.3c-2.3,3.2-5.1,5.9-8.2,8.2c-3.1,2.3-6.6,4.1-10.3,5.3c-1.8,0.6-3.7,1.1-5.7,1.4c-1.9,0.4-3.9,0.7-5.8,0.8
		H813v0.2h-35.8c-17.8,0.2-35.1,6.4-49,17.5c-1.2,0.9-2.3,1.9-3.4,2.9c-0.6,0.5-1.1,1-1.7,1.5l-1.6,1.6l-1.5,1.6
		c-0.5,0.5-1,1.1-1.5,1.6c-1,1.1-2,2.2-2.9,3.4c-3.7,4.7-7,9.8-9.6,15.2c-5,10.3-7.7,21.5-8,32.9l0,0v1.5c0,0.2,0,0.3,0,0.5l0,0
		v349.5l0,0c0,0.2,0,0.3,0,0.5v1.5l0,0c0.4,17.5,6.5,34.4,17.5,48.1c0.9,1.2,1.9,2.3,2.9,3.4c0.5,0.6,1,1.1,1.5,1.7l1.6,1.6l1.6,1.6
		c0.5,0.5,1.1,1,1.7,1.5c1.1,1,2.2,2,3.4,2.9c4.7,3.7,9.8,7,15.2,9.6c10.6,5,22.1,7.7,33.8,7.9H799v0.2h75.3c2,0.1,3.9,0.4,5.8,0.8
		c1.9,0.3,3.8,0.8,5.7,1.4c3.7,1.2,7.2,3,10.3,5.3c3.2,2.3,5.9,5.1,8.2,8.2c2.3,3.1,4.1,6.6,5.3,10.3c0.6,1.8,1.1,3.7,1.4,5.7
		c0.3,1.9,0.8,2.9,0.8,4.8l0,0v24.3H933v-24.3l0,0c0-2.7-0.2-5.5-0.6-8.2C931.9,988.5,931.2,985.5,930.3,982.5z"/>
</g>
<g id="деревья">
	<g id="дерево_Изображение">
		<path class="st1" d="M1127.2,246h-3.4v12.1c1,0.9,2.5,0.9,3.4,0V246z"/>
		<ellipse class="st2" cx="1125.5" cy="237.9" rx="12.1" ry="12.7"/>
	</g>
	<g id="дерево_Изображение-2">
		<path class="st1" d="M140.7,252.4h-3.3v6.6c1.1,0.5,2.3,0.5,3.3,0V252.4z"/>
		<path class="st3" d="M139,219.5c-6.3,9.9-9.7,21.4-9.6,33.2c6.2,2.1,13,2.1,19.3,0C148,241.6,144.3,230.6,139,219.5z"/>
		<path class="st1" d="M815,251.9h-3.3v6.6c1.1,0.5,2.3,0.5,3.3,0L815,251.9z"/>
		<path class="st3" d="M813.4,219c-6.3,9.9-9.7,21.4-9.6,33.2c6.2,2.1,13,2.1,19.3,0C822.4,241.2,818.7,230.1,813.4,219z"/>
		<path class="st1" d="M986.7,465.9h-3.3v6.6c1.1,0.5,2.3,0.5,3.3,0L986.7,465.9z"/>
		<path class="st3" d="M985.1,433c-6.3,9.9-9.7,21.4-9.6,33.2c6.2,2.1,13,2.1,19.3,0C994.1,455.1,990.4,444.1,985.1,433z"/>
		<path class="st1" d="M479.7,251.9h-3.3v6.6c1.1,0.5,2.3,0.5,3.3,0V251.9z"/>
		<path class="st3" d="M478,219c-6.3,9.9-9.7,21.4-9.6,33.2c6.2,2.1,13,2.1,19.3,0C487,241.2,483.3,230.1,478,219z"/>
	</g>
	<rect class="st4" width="1280" height="1024"/>
	<path id="_Обтравочный_контур_4" class="st5" d="M349.1,258.3c-0.2-1.8-2.4-2-2.4-2s-0.2-6-0.5-9.9
		c-3.5,0-4.5,0-4.9-1.3c-1.4-4.5-1.9-5.3-1.3-6.4c0.4-0.8,1-0.7,4.5-0.6c-1-2.4-2.5-3.6-6.7-3.6c-5.3,0-16.6-0.1-16.6-0.1
		c-6.9,0-19-0.4-21.3-0.4s-2.9,0.4-4.1,4.8s-1.5,19.5-1.5,19.5s-1.8,0.6-1.8,1.4s7.5,0.8,7.5,0.8c-0.4-1.8,0.5-3.6,2.2-4.4
		c2.1-1.2,4.6-0.1,5.9,0.9s0.9,3.6,0.9,3.6l22.4,0.1c0,0,0.7-2.5,1.7-3.3c1.9-1.5,4.7-1.1,6.2,0.8c0.6,0.7,0.9,1.6,0.9,2.5
		c0,0,6.9,0.3,8.1-0.4S349.3,260.1,349.1,258.3z"/>
	<g>
		<defs>
			<path id="SVGID_1_" d="M349.1,258.3c-0.2-1.8-2.4-2-2.4-2s-0.2-6-0.5-9.9c-3.5,0-4.5,0-4.9-1.3c-1.4-4.5-1.9-5.3-1.3-6.4
				c0.4-0.8,1-0.7,4.5-0.6c-1-2.4-2.5-3.6-6.7-3.6c-5.3,0-16.6-0.1-16.6-0.1c-6.9,0-19-0.4-21.3-0.4s-2.9,0.4-4.1,4.8
				s-1.5,19.5-1.5,19.5s-1.8,0.6-1.8,1.4s7.5,0.8,7.5,0.8c-0.4-1.8,0.5-3.6,2.2-4.4c2.1-1.2,4.6-0.1,5.9,0.9s0.9,3.6,0.9,3.6
				l22.4,0.1c0,0,0.7-2.5,1.7-3.3c1.9-1.5,4.7-1.1,6.2,0.8c0.6,0.7,0.9,1.6,0.9,2.5c0,0,6.9,0.3,8.1-0.4S349.3,260.1,349.1,258.3z"
				/>
		</defs>
		<clipPath id="SVGID_2_">
			<use xlink:href="#SVGID_1_"  style="overflow:visible;"/>
		</clipPath>
		<g class="st6">
			<rect x="291" y="248.8" class="st7" width="59.7" height="10"/>
			<polygon class="st8" points="350.5,262.9 291,262.9 291,258.5 336,258.5 350.2,255.7 			"/>
			<polygon class="st9" points="294,247.9 349.1,247.9 348.6,249.3 293.8,249.3 			"/>
		</g>
	</g>
	<path class="st10" d="M340.1,238.7c-0.6,1.2-0.1,1.9,1.3,6.4c0.4,1.3,1.4,1.3,4.9,1.3c-0.1-2.1-0.4-4.1-0.9-6.2
		c-0.2-0.7-0.5-1.5-0.7-2.2C341.1,238,340.5,237.9,340.1,238.7z"/>
	<path class="st10" d="M321.3,237.9h7.6c0.5,0,0.9,0.4,0.9,0.9v6.5c0,0.5-0.4,0.9-0.9,0.9h-7.6c-0.5,0-0.9-0.4-0.9-0.9v-6.5
		C320.4,238.3,320.8,237.9,321.3,237.9z"/>
	<path class="st10" d="M310.1,237.9h7.6c0.5,0,0.9,0.4,0.9,0.9v6.5c0,0.5-0.4,0.9-0.9,0.9h-7.6c-0.5,0-0.9-0.4-0.9-0.9v-6.5
		C309.2,238.3,309.6,237.9,310.1,237.9z"/>
	<path class="st10" d="M299.2,237.9h7.6c0.5,0,0.9,0.4,0.9,0.9v6.5c0,0.5-0.4,0.9-0.9,0.9h-7.6c-0.5,0-0.9-0.4-0.9-0.9v-6.5
		C298.4,238.3,298.7,237.9,299.2,237.9z"/>
	<ellipse class="st8" cx="333.8" cy="251.6" rx="2.2" ry="0.7"/>
	<path class="st10" d="M338.2,239.3c-0.4-1.4-1.7-1.3-6.3-1.3v7.9c6.1,0,7,0.4,7.5-0.6C339.9,244.3,339.5,243.6,338.2,239.3z"/>
	<circle class="st11" cx="304.9" cy="260.6" r="4.3"/>
	<circle class="st11" cx="335.8" cy="260.6" r="4.3"/>
	<path id="_Обтравочный_контур_5" class="st5" d="M976.8,259.7c-0.2-1.8-2.4-2-2.4-2s-0.2-6-0.5-9.9
		c-3.5,0-4.5,0-4.9-1.3c-1.4-4.5-1.9-5.3-1.3-6.4c0.4-0.8,1-0.7,4.5-0.6c-1-2.4-2.5-3.6-6.7-3.6c-5.3,0-16.6-0.1-16.6-0.1
		c-6.9,0-19-0.4-21.3-0.4s-2.9,0.4-4.1,4.8s-1.5,19.5-1.5,19.5s-1.8,0.6-1.8,1.4s7.5,0.8,7.5,0.8c-0.4-1.8,0.5-3.6,2.2-4.4
		c2.1-1.2,4.6-0.1,5.9,0.9s0.9,3.6,0.9,3.6l22.4,0.1c0,0,0.7-2.5,1.7-3.3c1.9-1.5,4.7-1.1,6.2,0.8c0.6,0.7,0.9,1.6,0.9,2.5
		c0,0,6.9,0.3,8.1-0.4S977,261.5,976.8,259.7z"/>
	<g>
		<defs>
			<path id="SVGID_3_" d="M976.8,259.7c-0.2-1.8-2.4-2-2.4-2s-0.2-6-0.5-9.9c-3.5,0-4.5,0-4.9-1.3c-1.4-4.5-1.9-5.3-1.3-6.4
				c0.4-0.8,1-0.7,4.5-0.6c-1-2.4-2.5-3.6-6.7-3.6c-5.3,0-16.6-0.1-16.6-0.1c-6.9,0-19-0.4-21.3-0.4s-2.9,0.4-4.1,4.8
				s-1.5,19.5-1.5,19.5s-1.8,0.6-1.8,1.4s7.5,0.8,7.5,0.8c-0.4-1.8,0.5-3.6,2.2-4.4c2.1-1.2,4.6-0.1,5.9,0.9s0.9,3.6,0.9,3.6
				l22.4,0.1c0,0,0.7-2.5,1.7-3.3c1.9-1.5,4.7-1.1,6.2,0.8c0.6,0.7,0.9,1.6,0.9,2.5c0,0,6.9,0.3,8.1-0.4S977,261.5,976.8,259.7z"/>
		</defs>
		<clipPath id="SVGID_4_">
			<use xlink:href="#SVGID_3_"  style="overflow:visible;"/>
		</clipPath>
		<g class="st12">
			<rect x="918.6" y="250.2" class="st7" width="59.7" height="10"/>
			<polygon class="st8" points="978.1,264.3 918.6,264.3 918.6,259.9 963.7,259.9 977.9,257.1 			"/>
			<polygon class="st9" points="921.7,249.3 976.8,249.3 976.3,250.8 921.4,250.8 			"/>
		</g>
	</g>
	<path class="st10" d="M967.8,240.1c-0.6,1.2-0.1,1.9,1.3,6.4c0.4,1.3,1.4,1.3,4.9,1.3c-0.1-2.1-0.4-4.1-0.9-6.2
		c-0.2-0.7-0.5-1.5-0.7-2.2C968.8,239.4,968.1,239.4,967.8,240.1z"/>
	<path class="st10" d="M949,239.3h7.6c0.5,0,0.9,0.4,0.9,0.9v6.5c0,0.5-0.4,0.9-0.9,0.9H949c-0.5,0-0.9-0.4-0.9-0.9v-6.5
		C948.1,239.7,948.5,239.3,949,239.3z"/>
	<path class="st10" d="M937.8,239.3h7.6c0.5,0,0.9,0.4,0.9,0.9v6.5c0,0.5-0.4,0.9-0.9,0.9h-7.6c-0.5,0-0.9-0.4-0.9-0.9v-6.5
		C936.9,239.7,937.3,239.3,937.8,239.3z"/>
	<path class="st10" d="M926.9,239.3h7.6c0.5,0,0.9,0.4,0.9,0.9v6.5c0,0.5-0.4,0.9-0.9,0.9h-7.6c-0.5,0-0.9-0.4-0.9-0.9v-6.5
		C926,239.7,926.4,239.3,926.9,239.3z"/>
	<ellipse class="st8" cx="961.4" cy="253" rx="2.2" ry="0.7"/>
	<path class="st10" d="M965.8,240.7c-0.4-1.4-1.7-1.3-6.3-1.3v7.9c6.2,0,7,0.4,7.5-0.6C967.6,245.7,967.1,245,965.8,240.7z"/>
	<circle class="st11" cx="932.5" cy="262" r="4.3"/>
	<circle class="st11" cx="963.4" cy="262" r="4.3"/>
	<path id="_Обтравочный_контур_6" class="st5" d="M1113.5,471.6c-0.2-1.8-2.4-2-2.4-2s-0.2-6-0.5-9.9
		c-3.4,0-4.5,0-4.9-1.3c-1.4-4.5-1.9-5.3-1.3-6.4c0.4-0.8,1-0.7,4.5-0.6c-1-2.4-2.5-3.6-6.7-3.6c-5.3,0-16.6-0.1-16.6-0.1
		c-6.9,0-19-0.4-21.3-0.4s-2.9,0.4-4.1,4.8s-1.5,19.5-1.5,19.5s-1.8,0.6-1.8,1.4s7.5,0.8,7.5,0.8c-0.4-1.8,0.5-3.6,2.2-4.4
		c2.1-1.2,4.6-0.1,5.9,0.9s0.9,3.6,0.9,3.6l22.4,0.1c0,0,0.7-2.5,1.7-3.3c1.9-1.5,4.7-1.1,6.2,0.8c0.6,0.7,0.9,1.6,0.9,2.5
		c0,0,6.9,0.3,8.1-0.4S1113.7,473.4,1113.5,471.6z"/>
	<g>
		<defs>
			<path id="SVGID_5_" d="M1113.5,471.6c-0.2-1.8-2.4-2-2.4-2s-0.2-6-0.5-9.9c-3.4,0-4.5,0-4.9-1.3c-1.4-4.5-1.9-5.3-1.3-6.4
				c0.4-0.8,1-0.7,4.5-0.6c-1-2.4-2.5-3.6-6.7-3.6c-5.3,0-16.6-0.1-16.6-0.1c-6.9,0-19-0.4-21.3-0.4s-2.9,0.4-4.1,4.8
				s-1.5,19.5-1.5,19.5s-1.8,0.6-1.8,1.4s7.5,0.8,7.5,0.8c-0.4-1.8,0.5-3.6,2.2-4.4c2.1-1.2,4.6-0.1,5.9,0.9s0.9,3.6,0.9,3.6
				l22.4,0.1c0,0,0.7-2.5,1.7-3.3c1.9-1.5,4.7-1.1,6.2,0.8c0.6,0.7,0.9,1.6,0.9,2.5c0,0,6.9,0.3,8.1-0.4S1113.7,473.4,1113.5,471.6z
				"/>
		</defs>
		<clipPath id="SVGID_6_">
			<use xlink:href="#SVGID_5_"  style="overflow:visible;"/>
		</clipPath>
		<g class="st13">
			<rect x="1055.3" y="462.1" class="st7" width="59.7" height="10"/>
			<polygon class="st8" points="1114.8,476.2 1055.3,476.2 1055.3,471.8 1100.4,471.8 1114.6,469.1 			"/>
			<polygon class="st9" points="1058.4,461.2 1113.5,461.2 1113,462.7 1058.1,462.7 			"/>
		</g>
	</g>
	<path class="st10" d="M1104.4,452c-0.6,1.2-0.1,2,1.3,6.4c0.4,1.3,1.4,1.3,4.9,1.3c-0.1-2.1-0.4-4.1-0.9-6.2
		c-0.2-0.7-0.5-1.5-0.7-2.2C1105.5,451.4,1104.8,451.3,1104.4,452z"/>
	<path class="st10" d="M1085.6,451.2h7.6c0.5,0,0.9,0.4,0.9,0.9v6.5c0,0.5-0.4,0.9-0.9,0.9h-7.6c-0.5,0-0.9-0.4-0.9-0.9v-6.5
		C1084.7,451.6,1085.1,451.2,1085.6,451.2z"/>
	<path class="st10" d="M1074.5,451.2h7.6c0.5,0,0.9,0.4,0.9,0.9v6.5c0,0.5-0.4,0.9-0.9,0.9h-7.6c-0.5,0-0.9-0.4-0.9-0.9v-6.5
		C1073.6,451.6,1074,451.2,1074.5,451.2z"/>
	<path class="st10" d="M1063.6,451.2h7.6c0.5,0,0.9,0.4,0.9,0.9v6.5c0,0.5-0.4,0.9-0.9,0.9h-7.6c-0.5,0-0.9-0.4-0.9-0.9v-6.5
		C1062.7,451.6,1063.1,451.2,1063.6,451.2z"/>
	<ellipse class="st8" cx="1098.1" cy="464.9" rx="2.2" ry="0.7"/>
	<path class="st10" d="M1102.5,452.6c-0.4-1.4-1.7-1.3-6.3-1.3v7.9c6.2,0,7,0.4,7.5-0.5C1104.3,457.7,1103.8,456.9,1102.5,452.6z"/>
	<circle class="st11" cx="1069.2" cy="474" r="4.3"/>
	<circle class="st11" cx="1100.1" cy="474" r="4.3"/>
	<path class="st1" d="M495.8,246h-3.5v12.3c1,0.9,2.5,0.9,3.5,0V246z"/>
	<ellipse class="st2" cx="494" cy="234.7" rx="9.9" ry="16"/>
	<path class="st1" d="M1111.8,246.3h-3.4v11.9c0.9,0.9,2.4,0.9,3.4,0V246.3z"/>
	<ellipse class="st3" cx="1110.1" cy="235.3" rx="9.6" ry="15.6"/>
</g>
<path class="st1" d="M123.1,246.2h-3.4v12.1c1,0.9,2.5,0.9,3.4,0V246.2z"/>
<ellipse class="st2" cx="121.4" cy="238.1" rx="12.1" ry="12.7"/>
<path class="st1" d="M157.2,246.5h-3.4v12.1c1,0.9,2.5,0.9,3.4,0L157.2,246.5z"/>
<ellipse class="st2" cx="155.5" cy="238.4" rx="12.1" ry="12.7"/>
<path class="st1" d="M1004.2,460h-3.4v12.1c1,0.9,2.5,0.9,3.4,0V460z"/>
<ellipse class="st2" cx="1002.5" cy="451.9" rx="12.1" ry="12.7"/>
</svg>
