<svg xmlns="http://www.w3.org/2000/svg" xmlns:xlink="http://www.w3.org/1999/xlink" viewBox="0 0 1280 1024"><defs><style>.cls-1{fill:#e79a4b;}.cls-2{fill:#d7d9e7;}.cls-2,.cls-3,.cls-5{fill-rule:evenodd;}.cls-3{fill:#746438;}.cls-4{fill:#668a4c;}.cls-15,.cls-5{fill:#89b06f;}.cls-6{fill:none;}.cls-7{clip-path:url(#clip-path);}.cls-8{fill:#d2741e;}.cls-9{fill:#743b0e;}.cls-10{fill:#fff;}.cls-11{fill:#ead3bd;}.cls-12{fill:#cfcfd0;stroke:#36393c;stroke-miterlimit:10;stroke-width:2.06px;}.cls-13{clip-path:url(#clip-path-2);}.cls-14{clip-path:url(#clip-path-3);}</style><clipPath id="clip-path"><path id="_Обтравочный_контур_" data-name="&lt;Обтравочный контур&gt;" class="cls-1" d="M349.14,258.28c-.19-1.78-2.36-2-2.36-2s-.2-6-.53-9.85c-3.45,0-4.48,0-4.88-1.31-1.38-4.47-1.86-5.25-1.28-6.42.38-.77,1-.68,4.49-.61-1-2.43-2.5-3.56-6.73-3.59-5.33,0-16.64-.06-16.64-.06-6.91,0-19-.35-21.34-.36s-2.91.36-4.12,4.8-1.48,19.53-1.48,19.53-1.78.58-1.78,1.37,7.5.84,7.5.84a3.87,3.87,0,0,1,2.16-4.36c2.13-1.19,4.58-.09,5.86.91s.87,3.61.87,3.61l22.41.15s.71-2.46,1.7-3.25a4.41,4.41,0,0,1,7.09,3.31s6.91.34,8.1-.44S349.32,260.06,349.14,258.28Z"/></clipPath><clipPath id="clip-path-2"><path id="_Обтравочный_контур_2" data-name="&lt;Обтравочный контур&gt;" class="cls-1" d="M976.79,259.69c-.19-1.78-2.36-2-2.36-2s-.2-6-.53-9.85c-3.45,0-4.48,0-4.88-1.31-1.38-4.47-1.86-5.25-1.28-6.42.38-.77,1-.68,4.49-.61-1-2.43-2.5-3.56-6.73-3.59-5.33,0-16.64-.06-16.64-.06-6.91,0-19-.35-21.34-.36s-2.91.36-4.12,4.8-1.48,19.53-1.48,19.53-1.78.58-1.78,1.37,7.5.84,7.5.84a3.87,3.87,0,0,1,2.16-4.36c2.13-1.19,4.58-.09,5.86.91s.87,3.61.87,3.61l22.41.15s.71-2.46,1.7-3.25a4.41,4.41,0,0,1,7.09,3.31s6.91.34,8.1-.44S977,261.47,976.79,259.69Z"/></clipPath><clipPath id="clip-path-3"><path id="_Обтравочный_контур_3" data-name="&lt;Обтравочный контур&gt;" class="cls-1" d="M1113.46,471.62c-.19-1.78-2.36-2-2.36-2s-.2-6-.53-9.85c-3.45,0-4.48,0-4.88-1.31-1.38-4.47-1.86-5.25-1.28-6.42.38-.77,1-.68,4.49-.61-1-2.43-2.5-3.56-6.73-3.59-5.33,0-16.64-.06-16.64-.06-6.91,0-19-.35-21.34-.36s-2.91.36-4.12,4.8-1.48,19.53-1.48,19.53-1.78.58-1.78,1.37,7.5.84,7.5.84a3.87,3.87,0,0,1,2.16-4.36c2.13-1.19,4.58-.09,5.86.91s.87,3.61.87,3.61l22.41.15s.71-2.46,1.7-3.25a4.41,4.41,0,0,1,7.09,3.31s6.91.34,8.1-.44S1113.65,473.4,1113.46,471.62Z"/></clipPath></defs><title>road_2</title><g id="Слой_2" data-name="Слой 2"><g id="фон"><g id="дорога"><path class="cls-2" d="M1213,339.26h0c0-.17,0-.34,0-.51V337.3h0a79.76,79.76,0,0,0-17.51-48.12c-.91-1.2-1.93-2.3-2.9-3.44-.48-.58-1-1.1-1.53-1.65l-1.56-1.63-1.63-1.56c-.55-.51-1.08-1-1.65-1.53-1.14-1-2.24-2-3.44-2.9a81.75,81.75,0,0,0-15.21-9.6,80.7,80.7,0,0,0-33.78-7.93H0V280.1H1132.31a63.15,63.15,0,0,1,13.5,1.62,59.53,59.53,0,0,1,12.47,4.34,60.45,60.45,0,0,1,11.18,7.06c.89.66,1.69,1.42,2.54,2.13.43.35.81.75,1.21,1.13l1.2,1.14,1.14,1.2c.38.4.78.79,1.13,1.21.71.85,1.48,1.65,2.13,2.53a60.44,60.44,0,0,1,7.06,11.18,62.43,62.43,0,0,1,6,25.54h0v79.63h0a62.43,62.43,0,0,1-6,25.54,60.44,60.44,0,0,1-7.06,11.18c-.66.89-1.42,1.69-2.13,2.53-.35.43-.75.81-1.13,1.21l-1.14,1.2-1.2,1.14c-.4.38-.79.78-1.21,1.13-.85.71-1.65,1.48-2.54,2.13a60.45,60.45,0,0,1-11.18,7.06,59.53,59.53,0,0,1-12.47,4.34,63.15,63.15,0,0,1-13.5,1.62H813v.18H781.65a59,59,0,0,0-8.19.55,60,60,0,0,0-9,2.16,58.89,58.89,0,0,0-16.39,8.36,58.18,58.18,0,0,0-13,13,58.87,58.87,0,0,0-8.37,16.39,60,60,0,0,0-2.16,9,51.74,51.74,0,0,0-.51,6.41h0v2.33c0,.15,0,.3,0,.45h0V879.29h0c0,.15,0,.3,0,.45v.55h0a58.88,58.88,0,0,0,.55,8.19,60,60,0,0,0,2.16,9,58.87,58.87,0,0,0,8.37,16.39,58.18,58.18,0,0,0,13,13,58.89,58.89,0,0,0,16.39,8.36,60,60,0,0,0,9,2.16,59,59,0,0,0,8.19.55H799v.18h79.32a63.15,63.15,0,0,1,13.5,1.62,59.53,59.53,0,0,1,12.47,4.34,60.45,60.45,0,0,1,11.18,7.06c.89.66,1.69,1.42,2.54,2.13.43.35.81.75,1.21,1.13l1.2,1.14,1.14,1.2c.38.4.78.79,1.13,1.21.71.85,1.48,1.65,2.13,2.53a60.44,60.44,0,0,1,7.06,11.18,62.42,62.42,0,0,1,6,25.54h0V1024H959V997.26h0c0-.17,0-.34,0-.51V995.3h0a79.76,79.76,0,0,0-17.51-48.12c-.91-1.2-1.93-2.3-2.9-3.44-.48-.58-1-1.1-1.53-1.65l-1.56-1.63-1.63-1.56c-.55-.51-1.08-1-1.65-1.53-1.14-1-2.24-2-3.44-2.9a81.74,81.74,0,0,0-15.21-9.6A80.7,80.7,0,0,0,879.76,917H858v-.18H782.65a42.83,42.83,0,0,1-5.82-.79,38.42,38.42,0,0,1-5.66-1.36,37.23,37.23,0,0,1-10.34-5.28,36.54,36.54,0,0,1-8.23-8.23,37.22,37.22,0,0,1-5.28-10.34,38.39,38.39,0,0,1-1.36-5.66,42.86,42.86,0,0,1-.79-5.83h0V536.71h0a42.86,42.86,0,0,1,.79-5.83,38.39,38.39,0,0,1,1.36-5.66,37.22,37.22,0,0,1,5.28-10.34,36.54,36.54,0,0,1,8.23-8.23,37.23,37.23,0,0,1,10.34-5.28,38.42,38.42,0,0,1,5.66-1.36,42.83,42.83,0,0,1,5.82-.79H1098v-.18h35.75a79.77,79.77,0,0,0,49-17.52c1.2-.91,2.3-1.93,3.44-2.9.58-.48,1.1-1,1.65-1.53l1.63-1.56,1.56-1.63c.51-.55,1-1.08,1.53-1.65,1-1.14,2-2.24,2.9-3.44a81.73,81.73,0,0,0,9.6-15.21A80.75,80.75,0,0,0,1213,420.7h0v-1.45c0-.17,0-.34,0-.51h0ZM930.27,982.54a58.87,58.87,0,0,0-8.37-16.39,58.19,58.19,0,0,0-13-13,58.89,58.89,0,0,0-16.39-8.36,60,60,0,0,0-9-2.16,59,59,0,0,0-8.19-.55H858v-.18H778.69a63.15,63.15,0,0,1-13.5-1.62,59.53,59.53,0,0,1-12.47-4.34,60.45,60.45,0,0,1-11.18-7.06c-.89-.66-1.69-1.42-2.54-2.13-.43-.35-.81-.75-1.21-1.13l-1.2-1.14-1.14-1.2c-.38-.4-.78-.79-1.13-1.21-.71-.85-1.48-1.65-2.13-2.53a60.44,60.44,0,0,1-7.06-11.18,62.42,62.42,0,0,1-6-25.54h0V533.19h0a62.42,62.42,0,0,1,6-25.54,60.44,60.44,0,0,1,7.06-11.18c.66-.89,1.42-1.69,2.13-2.53.35-.43.75-.81,1.13-1.21l1.14-1.2,1.2-1.14c.4-.38.79-.78,1.21-1.13.85-.71,1.65-1.48,2.54-2.13a60.45,60.45,0,0,1,11.18-7.06,59.53,59.53,0,0,1,12.47-4.34,63.15,63.15,0,0,1,13.5-1.62H1098v-.18h31.34a59,59,0,0,0,8.19-.55,60,60,0,0,0,9-2.16,58.89,58.89,0,0,0,16.4-8.36,58.18,58.18,0,0,0,13-13,58.88,58.88,0,0,0,8.37-16.39,60,60,0,0,0,2.16-9,58.85,58.85,0,0,0,.55-8.19h0v-.55c0-.15,0-.3,0-.45h0V342.71h0c0-.15,0-.3,0-.45v-.55h0a58.85,58.85,0,0,0-.55-8.19,60,60,0,0,0-2.16-9,58.88,58.88,0,0,0-8.37-16.39,58.18,58.18,0,0,0-13-13,58.89,58.89,0,0,0-16.4-8.36,60,60,0,0,0-9-2.16,59,59,0,0,0-8.19-.55H0v21.15H1128.35a42.83,42.83,0,0,1,5.82.79,38.41,38.41,0,0,1,5.66,1.36,37.23,37.23,0,0,1,10.34,5.28,36.54,36.54,0,0,1,8.23,8.23,37.22,37.22,0,0,1,5.28,10.34,38.41,38.41,0,0,1,1.36,5.66,42.87,42.87,0,0,1,.79,5.83h0v72.57h0a42.87,42.87,0,0,1-.79,5.83,38.41,38.41,0,0,1-1.36,5.66,37.22,37.22,0,0,1-5.28,10.34,36.54,36.54,0,0,1-8.23,8.23,37.23,37.23,0,0,1-10.34,5.28,38.41,38.41,0,0,1-5.66,1.36,42.83,42.83,0,0,1-5.82.79H813v.18H777.24a79.77,79.77,0,0,0-49,17.52c-1.2.91-2.3,1.93-3.44,2.9-.58.48-1.1,1-1.65,1.53l-1.63,1.56L720,478.09c-.51.55-1,1.08-1.53,1.65-1,1.14-2,2.24-2.9,3.44a81.73,81.73,0,0,0-9.6,15.21A80.75,80.75,0,0,0,698,531.3h0v1.45c0,.17,0,.34,0,.51h0V882.74h0c0,.17,0,.34,0,.51v1.45h0a79.76,79.76,0,0,0,17.51,48.12c.91,1.2,1.93,2.3,2.9,3.44.48.58,1,1.1,1.53,1.65l1.56,1.63,1.63,1.56c.55.51,1.08,1,1.65,1.53,1.14,1,2.24,2,3.44,2.9a81.75,81.75,0,0,0,15.21,9.6A80.7,80.7,0,0,0,777.24,963H799v.18h75.35a42.83,42.83,0,0,1,5.82.79,38.41,38.41,0,0,1,5.66,1.36,37.23,37.23,0,0,1,10.34,5.28,36.54,36.54,0,0,1,8.23,8.23,37.22,37.22,0,0,1,5.28,10.34,38.39,38.39,0,0,1,1.36,5.66c.29,1.92.77,2.87.79,4.83h0V1024H933V999.71h0a50.62,50.62,0,0,0-.56-8.19A60,60,0,0,0,930.27,982.54Z"/></g><g id="деревья"><g id="дерево_Изображение" data-name="дерево Изображение"><path class="cls-3" d="M1127.2,246h-3.41v12.08a2.48,2.48,0,0,0,3.41,0Z"/><ellipse class="cls-4" cx="1125.5" cy="237.92" rx="12.1" ry="12.69"/></g><g id="дерево_Изображение-2" data-name="дерево Изображение"><path class="cls-3" d="M140.66,252.36h-3.32V259a3.89,3.89,0,0,0,3.32,0Z"/><path class="cls-5" d="M139,219.48a61.63,61.63,0,0,0-9.63,33.21,30,30,0,0,0,19.27,0C148,241.62,144.34,230.55,139,219.48Z"/><path class="cls-3" d="M815,251.93H811.7v6.65a3.89,3.89,0,0,0,3.32,0Z"/><path class="cls-5" d="M813.37,219a61.63,61.63,0,0,0-9.63,33.21,30,30,0,0,0,19.27,0C822.39,241.18,818.7,230.11,813.37,219Z"/><path class="cls-3" d="M986.72,465.88H983.4v6.65a3.89,3.89,0,0,0,3.32,0Z"/><path class="cls-5" d="M985.06,433a61.63,61.63,0,0,0-9.63,33.21,30,30,0,0,0,19.27,0C994.09,455.13,990.4,444.06,985.06,433Z"/><path class="cls-3" d="M479.66,251.93h-3.32v6.65a3.89,3.89,0,0,0,3.32,0Z"/><path class="cls-5" d="M478,219a61.63,61.63,0,0,0-9.63,33.21,30,30,0,0,0,19.27,0C487,241.19,483.34,230.12,478,219Z"/></g><rect class="cls-6" width="1280" height="1024"/><path id="_Обтравочный_контур_4" data-name="&lt;Обтравочный контур&gt;" class="cls-1" d="M349.14,258.28c-.19-1.78-2.36-2-2.36-2s-.2-6-.53-9.85c-3.45,0-4.48,0-4.88-1.31-1.38-4.47-1.86-5.25-1.28-6.42.38-.77,1-.68,4.49-.61-1-2.43-2.5-3.56-6.73-3.59-5.33,0-16.64-.06-16.64-.06-6.91,0-19-.35-21.34-.36s-2.91.36-4.12,4.8-1.48,19.53-1.48,19.53-1.78.58-1.78,1.37,7.5.84,7.5.84a3.87,3.87,0,0,1,2.16-4.36c2.13-1.19,4.58-.09,5.86.91s.87,3.61.87,3.61l22.41.15s.71-2.46,1.7-3.25a4.41,4.41,0,0,1,7.09,3.31s6.91.34,8.1-.44S349.32,260.06,349.14,258.28Z"/><g class="cls-7"><rect class="cls-8" x="290.99" y="248.75" width="59.74" height="10.01"/><polygon class="cls-9" points="350.45 262.88 290.99 262.88 290.99 258.46 336.05 258.46 350.22 255.73 350.45 262.88"/><polygon class="cls-10" points="294.05 247.87 349.14 247.87 348.65 249.34 293.75 249.34 294.05 247.87"/></g><path class="cls-11" d="M340.1,238.7c-.59,1.17-.1,1.95,1.28,6.42.4,1.29,1.43,1.32,4.88,1.31a35.45,35.45,0,0,0-.93-6.16,21.47,21.47,0,0,0-.74-2.18C341.15,238,340.48,237.94,340.1,238.7Z"/><rect class="cls-11" x="320.42" y="237.86" width="9.42" height="8.24" rx="0.89" ry="0.89"/><rect class="cls-11" x="309.23" y="237.86" width="9.42" height="8.24" rx="0.89" ry="0.89"/><rect class="cls-11" x="298.35" y="237.86" width="9.42" height="8.24" rx="0.89" ry="0.89"/><ellipse class="cls-9" cx="333.78" cy="251.56" rx="2.21" ry="0.7"/><path class="cls-11" d="M338.17,239.3c-.44-1.41-1.67-1.25-6.29-1.25V246c6.15,0,7,.38,7.51-.55C339.94,244.32,339.49,243.58,338.17,239.3Z"/><circle class="cls-12" cx="304.87" cy="260.63" r="4.29"/><circle class="cls-12" cx="335.77" cy="260.63" r="4.29"/><path id="_Обтравочный_контур_5" data-name="&lt;Обтравочный контур&gt;" class="cls-1" d="M976.79,259.69c-.19-1.78-2.36-2-2.36-2s-.2-6-.53-9.85c-3.45,0-4.48,0-4.88-1.31-1.38-4.47-1.86-5.25-1.28-6.42.38-.77,1-.68,4.49-.61-1-2.43-2.5-3.56-6.73-3.59-5.33,0-16.64-.06-16.64-.06-6.91,0-19-.35-21.34-.36s-2.91.36-4.12,4.8-1.48,19.53-1.48,19.53-1.78.58-1.78,1.37,7.5.84,7.5.84a3.87,3.87,0,0,1,2.16-4.36c2.13-1.19,4.58-.09,5.86.91s.87,3.61.87,3.61l22.41.15s.71-2.46,1.7-3.25a4.41,4.41,0,0,1,7.09,3.31s6.91.34,8.1-.44S977,261.47,976.79,259.69Z"/><g class="cls-13"><rect class="cls-8" x="918.64" y="250.17" width="59.74" height="10.01"/><polygon class="cls-9" points="978.1 264.29 918.64 264.29 918.64 259.88 963.7 259.88 977.87 257.15 978.1 264.29"/><polygon class="cls-10" points="921.69 249.28 976.79 249.28 976.3 250.76 921.4 250.76 921.69 249.28"/></g><path class="cls-11" d="M967.75,240.12c-.59,1.17-.1,1.95,1.28,6.42.4,1.29,1.43,1.32,4.88,1.31a35.45,35.45,0,0,0-.93-6.16,21.47,21.47,0,0,0-.74-2.18C968.8,239.44,968.13,239.36,967.75,240.12Z"/><rect class="cls-11" x="948.07" y="239.28" width="9.42" height="8.24" rx="0.89" ry="0.89"/><rect class="cls-11" x="936.88" y="239.28" width="9.42" height="8.24" rx="0.89" ry="0.89"/><rect class="cls-11" x="925.99" y="239.28" width="9.42" height="8.24" rx="0.89" ry="0.89"/><ellipse class="cls-9" cx="961.43" cy="252.98" rx="2.21" ry="0.7"/><path class="cls-11" d="M965.81,240.72c-.44-1.41-1.67-1.25-6.29-1.25v7.93c6.15,0,7,.38,7.51-.55C967.59,245.74,967.13,245,965.81,240.72Z"/><circle class="cls-12" cx="932.52" cy="262.04" r="4.29"/><circle class="cls-12" cx="963.42" cy="262.04" r="4.29"/><path id="_Обтравочный_контур_6" data-name="&lt;Обтравочный контур&gt;" class="cls-1" d="M1113.46,471.62c-.19-1.78-2.36-2-2.36-2s-.2-6-.53-9.85c-3.45,0-4.48,0-4.88-1.31-1.38-4.47-1.86-5.25-1.28-6.42.38-.77,1-.68,4.49-.61-1-2.43-2.5-3.56-6.73-3.59-5.33,0-16.64-.06-16.64-.06-6.91,0-19-.35-21.34-.36s-2.91.36-4.12,4.8-1.48,19.53-1.48,19.53-1.78.58-1.78,1.37,7.5.84,7.5.84a3.87,3.87,0,0,1,2.16-4.36c2.13-1.19,4.58-.09,5.86.91s.87,3.61.87,3.61l22.41.15s.71-2.46,1.7-3.25a4.41,4.41,0,0,1,7.09,3.31s6.91.34,8.1-.44S1113.65,473.4,1113.46,471.62Z"/><g class="cls-14"><rect class="cls-8" x="1055.31" y="462.09" width="59.74" height="10.01"/><polygon class="cls-9" points="1114.77 476.22 1055.31 476.22 1055.31 471.8 1100.37 471.8 1114.55 469.07 1114.77 476.22"/><polygon class="cls-10" points="1058.37 461.21 1113.46 461.21 1112.97 462.68 1058.07 462.68 1058.37 461.21"/></g><path class="cls-11" d="M1104.42,452c-.59,1.17-.1,1.95,1.28,6.42.4,1.29,1.43,1.32,4.88,1.31a35.45,35.45,0,0,0-.93-6.16,21.47,21.47,0,0,0-.74-2.18C1105.47,451.37,1104.8,451.28,1104.42,452Z"/><rect class="cls-11" x="1084.74" y="451.2" width="9.42" height="8.24" rx="0.89" ry="0.89"/><rect class="cls-11" x="1073.56" y="451.2" width="9.42" height="8.24" rx="0.89" ry="0.89"/><rect class="cls-11" x="1062.67" y="451.2" width="9.42" height="8.24" rx="0.89" ry="0.89"/><ellipse class="cls-9" cx="1098.1" cy="464.91" rx="2.21" ry="0.7"/><path class="cls-11" d="M1102.49,452.65c-.44-1.41-1.67-1.25-6.29-1.25v7.93c6.15,0,7,.38,7.51-.55C1104.27,457.66,1103.81,456.92,1102.49,452.65Z"/><circle class="cls-12" cx="1069.2" cy="473.97" r="4.29"/><circle class="cls-12" cx="1100.09" cy="473.97" r="4.29"/><path class="cls-3" d="M495.75,246h-3.46v12.27a2.52,2.52,0,0,0,3.46,0Z"/><ellipse class="cls-4" cx="494.02" cy="234.69" rx="9.9" ry="15.97"/><path class="cls-3" d="M1111.8,246.33h-3.37v11.94a2.45,2.45,0,0,0,3.37,0Z"/><ellipse class="cls-15" cx="1110.11" cy="235.33" rx="9.64" ry="15.55"/></g><path class="cls-3" d="M123.14,246.24h-3.41v12.08a2.48,2.48,0,0,0,3.41,0Z"/><ellipse class="cls-4" cx="121.44" cy="238.15" rx="12.1" ry="12.69"/><path class="cls-3" d="M157.2,246.48H153.8v12.08a2.48,2.48,0,0,0,3.41,0Z"/><ellipse class="cls-4" cx="155.5" cy="238.39" rx="12.1" ry="12.69"/><path class="cls-3" d="M1004.2,460h-3.41v12.08a2.48,2.48,0,0,0,3.41,0Z"/><ellipse class="cls-4" cx="1002.5" cy="451.92" rx="12.1" ry="12.69"/></g></g></svg>