<svg xmlns="http://www.w3.org/2000/svg" width="9.937" height="13.5" viewBox="0 0 9.937 13.5">
  <metadata><?xpacket begin="﻿" id="W5M0MpCehiHzreSzNTczkc9d"?>
<x:xmpmeta xmlns:x="adobe:ns:meta/" x:xmptk="Adobe XMP Core 5.6-c138 79.159824, 2016/09/14-01:09:01        ">
   <rdf:RDF xmlns:rdf="http://www.w3.org/1999/02/22-rdf-syntax-ns#">
      <rdf:Description rdf:about=""/>
   </rdf:RDF>
</x:xmpmeta>
                                                                                                    
                                                                                                    
                                                                                                    
                                                                                                    
                                                                                                    
                                                                                                    
                                                                                                    
                                                                                                    
                                                                                                    
                                                                                                    
                                                                                                    
                                                                                                    
                                                                                                    
                                                                                                    
                                                                                                    
                                                                                                    
                                                                                                    
                                                                                                    
                                                                                                    
                                                                                                    
                           
<?xpacket end="w"?></metadata>
<defs>
    <style>
      .cls-1 {
        fill: #73b548;
        fill-rule: evenodd;
      }
    </style>
  </defs>
  <path id="символ_рубля" data-name="символ рубля" class="cls-1" d="M792.051,720.813h1.5v1.1h-1.5v1.729h1.5V726h2.394v-2.356h3.04v-1.729h-3.04v-1.1h1.292a7.174,7.174,0,0,0,1.786-.219,4.207,4.207,0,0,0,1.52-.722,3.645,3.645,0,0,0,1.064-1.3,4.344,4.344,0,0,0,.4-1.957,4.5,4.5,0,0,0-.409-2.052,3.247,3.247,0,0,0-1.092-1.254,4.256,4.256,0,0,0-1.6-.627,10.3,10.3,0,0,0-1.9-.171q-0.951,0-1.8.085t-1.653.238v6.251h-1.5v1.729Zm3.895-6.118c0.139-.025.323-0.048,0.551-0.067s0.468-.028.722-0.028a2.567,2.567,0,0,1,1.615.484,1.955,1.955,0,0,1,.627,1.644,2.615,2.615,0,0,1-.2,1.073,1.82,1.82,0,0,1-.541.713,2.21,2.21,0,0,1-.808.389,3.766,3.766,0,0,1-.978.124h-0.988V714.7Z" transform="translate(-792.063 -712.5)"/>
</svg>
