<svg xmlns="http://www.w3.org/2000/svg" viewBox="0 0 73.06 43.23"><defs><style>.cls-1{fill:#73b547;}</style></defs><title>ticket-g</title><g id="Слой_2" data-name="Слой 2"><g id="Слой_1-2" data-name="Слой 1"><path id="иконка" class="cls-1" d="M23,15.16a1,1,0,0,0-1-1H18a1,1,0,0,0-1,1l0,5a1,1,0,0,0,1,1h4a1,1,0,0,0,1-1Zm8,0a1,1,0,0,0-1-1H26a1,1,0,0,0-1,1l0,5a1,1,0,0,0,1,1h4a1,1,0,0,0,1-1Zm8,0a1,1,0,0,0-1-1H34a1,1,0,0,0-1,1l0,5a1,1,0,0,0,1,1h4a1,1,0,0,0,1-1Zm0,0a1,1,0,0,0-1-1H34a1,1,0,0,0-1,1l0,5a1,1,0,0,0,1,1h4a1,1,0,0,0,1-1Zm-8,0a1,1,0,0,0-1-1H26a1,1,0,0,0-1,1l0,5a1,1,0,0,0,1,1h4a1,1,0,0,0,1-1Zm-8,0a1,1,0,0,0-1-1H18a1,1,0,0,0-1,1l0,5a1,1,0,0,0,1,1h4a1,1,0,0,0,1-1Zm0,0a1,1,0,0,0-1-1H18a1,1,0,0,0-1,1l0,5a1,1,0,0,0,1,1h4a1,1,0,0,0,1-1Zm8,0a1,1,0,0,0-1-1H26a1,1,0,0,0-1,1l0,5a1,1,0,0,0,1,1h4a1,1,0,0,0,1-1Zm8,0a1,1,0,0,0-1-1H34a1,1,0,0,0-1,1l0,5a1,1,0,0,0,1,1h4a1,1,0,0,0,1-1Zm0,0a1,1,0,0,0-1-1H34a1,1,0,0,0-1,1l0,5a1,1,0,0,0,1,1h4a1,1,0,0,0,1-1Zm-8,0a1,1,0,0,0-1-1H26a1,1,0,0,0-1,1l0,5a1,1,0,0,0,1,1h4a1,1,0,0,0,1-1Zm-8,0a1,1,0,0,0-1-1H18a1,1,0,0,0-1,1l0,5a1,1,0,0,0,1,1h4a1,1,0,0,0,1-1Zm0,0a1,1,0,0,0-1-1H18a1,1,0,0,0-1,1l0,5a1,1,0,0,0,1,1h4a1,1,0,0,0,1-1Zm8,0a1,1,0,0,0-1-1H26a1,1,0,0,0-1,1l0,5a1,1,0,0,0,1,1h4a1,1,0,0,0,1-1Zm8,0a1,1,0,0,0-1-1H34a1,1,0,0,0-1,1l0,5a1,1,0,0,0,1,1h4a1,1,0,0,0,1-1Zm-16,0a1,1,0,0,0-1-1H18a1,1,0,0,0-1,1l0,5a1,1,0,0,0,1,1h4a1,1,0,0,0,1-1Zm8,0a1,1,0,0,0-1-1H26a1,1,0,0,0-1,1l0,5a1,1,0,0,0,1,1h4a1,1,0,0,0,1-1Zm8,0a1,1,0,0,0-1-1H34a1,1,0,0,0-1,1l0,5a1,1,0,0,0,1,1h4a1,1,0,0,0,1-1Zm0,0a1,1,0,0,0-1-1H34a1,1,0,0,0-1,1l0,5a1,1,0,0,0,1,1h4a1,1,0,0,0,1-1Zm-8,0a1,1,0,0,0-1-1H26a1,1,0,0,0-1,1l0,5a1,1,0,0,0,1,1h4a1,1,0,0,0,1-1Zm-8,0a1,1,0,0,0-1-1H18a1,1,0,0,0-1,1l0,5a1,1,0,0,0,1,1h4a1,1,0,0,0,1-1Zm0,0a1,1,0,0,0-1-1H18a1,1,0,0,0-1,1l0,5a1,1,0,0,0,1,1h4a1,1,0,0,0,1-1Zm8,0a1,1,0,0,0-1-1H26a1,1,0,0,0-1,1l0,5a1,1,0,0,0,1,1h4a1,1,0,0,0,1-1Zm8,0a1,1,0,0,0-1-1H34a1,1,0,0,0-1,1l0,5a1,1,0,0,0,1,1h4a1,1,0,0,0,1-1Zm0,0a1,1,0,0,0-1-1H34a1,1,0,0,0-1,1l0,5a1,1,0,0,0,1,1h4a1,1,0,0,0,1-1Zm-8,0a1,1,0,0,0-1-1H26a1,1,0,0,0-1,1l0,5a1,1,0,0,0,1,1h4a1,1,0,0,0,1-1Zm-8,0a1,1,0,0,0-1-1H18a1,1,0,0,0-1,1l0,5a1,1,0,0,0,1,1h4a1,1,0,0,0,1-1Zm0,0a1,1,0,0,0-1-1H18a1,1,0,0,0-1,1l0,5a1,1,0,0,0,1,1h4a1,1,0,0,0,1-1Zm8,0a1,1,0,0,0-1-1H26a1,1,0,0,0-1,1l0,5a1,1,0,0,0,1,1h4a1,1,0,0,0,1-1Zm8,0a1,1,0,0,0-1-1H34a1,1,0,0,0-1,1l0,5a1,1,0,0,0,1,1h4a1,1,0,0,0,1-1Zm-16,0a1,1,0,0,0-1-1H18a1,1,0,0,0-1,1l0,5a1,1,0,0,0,1,1h4a1,1,0,0,0,1-1Zm8,0a1,1,0,0,0-1-1H26a1,1,0,0,0-1,1l0,5a1,1,0,0,0,1,1h4a1,1,0,0,0,1-1Zm8,0a1,1,0,0,0-1-1H34a1,1,0,0,0-1,1l0,5a1,1,0,0,0,1,1h4a1,1,0,0,0,1-1Z"/><path class="cls-1" d="M73,29.48a9,9,0,0,1-.05-17L73,5a5,5,0,0,0-5-5L5,.2a5,5,0,0,0-5,5l.1,33a5,5,0,0,0,5,5l63-.2a5,5,0,0,0,5-5Zm-47.78-.32a3.19,3.19,0,0,1-6.38,0,3.22,3.22,0,0,1,.93-2.26A3.15,3.15,0,0,1,22.05,26a3.18,3.18,0,0,1,3.2,3.17Zm9.82,3.15a3.18,3.18,0,0,1-3.2-3.17h0a3.19,3.19,0,1,1,6.37,0h0A3.17,3.17,0,0,1,35.07,32.31Zm8-3.21H39.87a4.82,4.82,0,0,0-9.63,0v0H26.88a4.82,4.82,0,0,0-9.63,0H15.06a3,3,0,0,1-3-3l0-12a3,3,0,0,1,3-3l25-.08a3,3,0,0,1,3,3l3,12A3,3,0,0,1,43.05,29.1ZM60,1.63A2.4,2.4,0,1,1,57.56,4,2.4,2.4,0,0,1,60,1.63ZM57.57,11A2.4,2.4,0,0,1,60,8.62h0A2.41,2.41,0,1,1,57.57,11Zm.72,5.32a2.4,2.4,0,1,1-.7,1.7A2.4,2.4,0,0,1,58.29,16.34ZM57.62,25A2.41,2.41,0,1,1,60,27.44,2.41,2.41,0,0,1,57.62,25Zm.72,5.32a2.39,2.39,0,0,1,1.7-.7h0A2.41,2.41,0,1,1,57.64,32,2.43,2.43,0,0,1,58.34,30.34Zm1.74,11.1a2.4,2.4,0,1,1,0-4.8h0a2.41,2.41,0,1,1,0,4.81Z"/></g></g></svg>