<svg xmlns="http://www.w3.org/2000/svg" width="38" height="28.5" viewBox="0 0 38 28.5">
  <metadata><?xpacket begin="﻿" id="W5M0MpCehiHzreSzNTczkc9d"?>
<x:xmpmeta xmlns:x="adobe:ns:meta/" x:xmptk="Adobe XMP Core 5.6-c138 79.159824, 2016/09/14-01:09:01        ">
   <rdf:RDF xmlns:rdf="http://www.w3.org/1999/02/22-rdf-syntax-ns#">
      <rdf:Description rdf:about=""/>
   </rdf:RDF>
</x:xmpmeta>
                                                                                                    
                                                                                                    
                                                                                                    
                                                                                                    
                                                                                                    
                                                                                                    
                                                                                                    
                                                                                                    
                                                                                                    
                                                                                                    
                                                                                                    
                                                                                                    
                                                                                                    
                                                                                                    
                                                                                                    
                                                                                                    
                                                                                                    
                                                                                                    
                                                                                                    
                                                                                                    
                           
<?xpacket end="w"?></metadata>
<defs>
    <style>
      .cls-1 {
        fill: #fff;
        fill-rule: evenodd;
      }
    </style>
  </defs>
  <path id="иконка" class="cls-1" d="M952.313,953.563a2.292,2.292,0,0,0,.687-1.688v-4.75H915v4.75a2.262,2.262,0,0,0,.705,1.688,2.307,2.307,0,0,0,1.67.687h33.25A2.29,2.29,0,0,0,952.313,953.563ZM915,930.5h38v-2.375a2.313,2.313,0,0,0-.687-1.67,2.264,2.264,0,0,0-1.688-.705h-33.25a2.266,2.266,0,0,0-1.689.705,2.312,2.312,0,0,0-.686,1.67V930.5Zm15.289,14.25,1.93-11.875h-3.08l-1.93,11.875h3.08Zm15.957-11.782a1.264,1.264,0,0,0-.408.222,2.655,2.655,0,0,0-.26.26,1.116,1.116,0,0,0-.185.316l-4.6,10.984h3.228l0.669-1.187h3.562l0.705,1.187h2.857l-2.486-11.875H946.84A1.755,1.755,0,0,0,946.246,932.968Zm-0.371,8.22,1.3-5.084,1.076,5.084h-2.375Zm-7.83,3.209a4.775,4.775,0,0,0,2.059-1.3,3.178,3.178,0,0,0,.91-2.283,2.661,2.661,0,0,0-.668-1.781,4.133,4.133,0,0,0-1.485-1.132,11.386,11.386,0,0,1-1.5-.779,1.151,1.151,0,0,1-.686-0.872q0-.891,1.688-0.946a4.746,4.746,0,0,1,2.654.538l0.445-2.487-0.371-.111q-0.372-.111-1.076-0.241a7.363,7.363,0,0,0-1.336-.13,7.114,7.114,0,0,0-1.485.167,9.637,9.637,0,0,0-1.67.538,3.342,3.342,0,0,0-1.465,1.188,3.2,3.2,0,0,0-.576,1.892,2.523,2.523,0,0,0,.668,1.744,4.064,4.064,0,0,0,1.485,1.076,7.737,7.737,0,0,1,1.484.8,1.25,1.25,0,0,1,.668.947,1.059,1.059,0,0,1-1.02.983,5.663,5.663,0,0,1-2.245.037,3.9,3.9,0,0,1-1.856-.724l-0.445,2.6,0.408,0.149a7.506,7.506,0,0,0,1.262.315,9.86,9.86,0,0,0,1.818.167A7.91,7.91,0,0,0,938.045,944.4ZM915,932.875v0.668a10.411,10.411,0,0,1,2.078.891l2.672,10.316h3.229l4.935-11.875h-3.34l-2.931,8.164-0.372-1.744-1.039-5.344-0.074-.26a1.159,1.159,0,0,0-.427-0.538,1.487,1.487,0,0,0-.946-0.278H915Z" transform="translate(-915 -925.75)"/>
</svg>
