<svg xmlns="http://www.w3.org/2000/svg" width="37.969" height="36" viewBox="0 0 37.969 36">
  <metadata><?xpacket begin="﻿" id="W5M0MpCehiHzreSzNTczkc9d"?>
<x:xmpmeta xmlns:x="adobe:ns:meta/" x:xmptk="Adobe XMP Core 5.6-c138 79.159824, 2016/09/14-01:09:01        ">
   <rdf:RDF xmlns:rdf="http://www.w3.org/1999/02/22-rdf-syntax-ns#">
      <rdf:Description rdf:about=""/>
   </rdf:RDF>
</x:xmpmeta>
                                                                                                    
                                                                                                    
                                                                                                    
                                                                                                    
                                                                                                    
                                                                                                    
                                                                                                    
                                                                                                    
                                                                                                    
                                                                                                    
                                                                                                    
                                                                                                    
                                                                                                    
                                                                                                    
                                                                                                    
                                                                                                    
                                                                                                    
                                                                                                    
                                                                                                    
                                                                                                    
                           
<?xpacket end="w"?></metadata>
<defs>
    <style>
      .cls-1 {
        fill: #fff;
        fill-rule: evenodd;
      }
    </style>
  </defs>
  <path id="иконка" class="cls-1" d="M527,952a3.736,3.736,0,0,1-2.813-1.172,4.336,4.336,0,0,1-1.218-2.859V932.031a4.338,4.338,0,0,1,1.218-2.859A3.74,3.74,0,0,1,527,928h18v-1.969A4,4,0,0,0,540.969,922H513.031A4,4,0,0,0,509,926.031v27.938a3.973,3.973,0,0,0,1.125,2.859A3.845,3.845,0,0,0,513.031,958h27.938A4,4,0,0,0,545,953.969V952H527Zm0-19.969h19.969v15.938H527V932.031Zm10.125,10.125a3.176,3.176,0,0,0,0-4.312,3.058,3.058,0,0,0-4.219,0,3.176,3.176,0,0,0,0,4.312,2.8,2.8,0,0,0,2.063.844A2.918,2.918,0,0,0,537.125,942.156Z" transform="translate(-509 -922)"/>
</svg>
