<svg xmlns="http://www.w3.org/2000/svg" width="50.625" height="48" viewBox="0 0 50.625 48">
  <metadata><?xpacket begin="﻿" id="W5M0MpCehiHzreSzNTczkc9d"?>
<x:xmpmeta xmlns:x="adobe:ns:meta/" x:xmptk="Adobe XMP Core 5.6-c138 79.159824, 2016/09/14-01:09:01        ">
   <rdf:RDF xmlns:rdf="http://www.w3.org/1999/02/22-rdf-syntax-ns#">
      <rdf:Description rdf:about=""/>
   </rdf:RDF>
</x:xmpmeta>
                                                                                                    
                                                                                                    
                                                                                                    
                                                                                                    
                                                                                                    
                                                                                                    
                                                                                                    
                                                                                                    
                                                                                                    
                                                                                                    
                                                                                                    
                                                                                                    
                                                                                                    
                                                                                                    
                                                                                                    
                                                                                                    
                                                                                                    
                                                                                                    
                                                                                                    
                                                                                                    
                           
<?xpacket end="w"?></metadata>
<defs>
    <style>
      .cls-1 {
        fill: #fff;
        fill-rule: evenodd;
      }
    </style>
  </defs>
  <path id="иконка" class="cls-1" d="M348,874a4.982,4.982,0,0,1-3.75-1.562,5.783,5.783,0,0,1-1.625-3.813v-21.25a5.781,5.781,0,0,1,1.625-3.812A4.983,4.983,0,0,1,348,842h24v-2.625A5.337,5.337,0,0,0,366.625,834h-37.25A5.335,5.335,0,0,0,324,839.375v37.25a5.3,5.3,0,0,0,1.5,3.813A5.13,5.13,0,0,0,329.375,882h37.25A5.335,5.335,0,0,0,372,876.625V874H348Zm0-26.625h26.625v21.25H348v-21.25Zm13.5,13.5a4.236,4.236,0,0,0,0-5.75,4.078,4.078,0,0,0-5.625,0,4.236,4.236,0,0,0,0,5.75,3.74,3.74,0,0,0,2.75,1.125A3.894,3.894,0,0,0,361.5,860.875Z" transform="translate(-324 -834)"/>
</svg>
