<svg xmlns="http://www.w3.org/2000/svg" width="95" height="138" viewBox="0 0 95 138">
  <metadata><?xpacket begin="﻿" id="W5M0MpCehiHzreSzNTczkc9d"?>
<x:xmpmeta xmlns:x="adobe:ns:meta/" x:xmptk="Adobe XMP Core 5.6-c138 79.159824, 2016/09/14-01:09:01        ">
   <rdf:RDF xmlns:rdf="http://www.w3.org/1999/02/22-rdf-syntax-ns#">
      <rdf:Description rdf:about=""/>
   </rdf:RDF>
</x:xmpmeta>
                                                                                                    
                                                                                                    
                                                                                                    
                                                                                                    
                                                                                                    
                                                                                                    
                                                                                                    
                                                                                                    
                                                                                                    
                                                                                                    
                                                                                                    
                                                                                                    
                                                                                                    
                                                                                                    
                                                                                                    
                                                                                                    
                                                                                                    
                                                                                                    
                                                                                                    
                                                                                                    
                           
<?xpacket end="w"?></metadata>
<defs>
    <style>
      .cls-1 {
        fill: #d3741e;
        fill-rule: evenodd;
      }
    </style>
  </defs>
  <path id="иконка" class="cls-1" d="M163.982,611.493A8.136,8.136,0,0,0,157.909,609q-5.127,0-8.366,6.469a120.216,120.216,0,0,0,0,125.062,18.737,18.737,0,0,0,4.318,4.65A7.393,7.393,0,0,0,157.909,747a8.128,8.128,0,0,0,6.073-2.493,8.45,8.45,0,0,0,2.429-6.132q0-2.694-2.7-8.895t-5.938-13.072a98.769,98.769,0,0,1-5.937-17.519,82.185,82.185,0,0,1,0-41.778,98.825,98.825,0,0,1,5.937-17.519q3.238-6.873,5.938-13.073t2.7-8.894A8.453,8.453,0,0,0,163.982,611.493ZM188.136,729.75a8.127,8.127,0,0,0,6.073-2.493,8.45,8.45,0,0,0,2.429-6.132q0-1.213-2.024-5.593t-4.454-9.5a74.288,74.288,0,0,1-4.453-12.87,57.795,57.795,0,0,1,0-30.322,74.407,74.407,0,0,1,4.453-12.87q2.43-5.121,4.454-9.5t2.024-5.593h0.135a9.011,9.011,0,0,0-2.632-6,7.982,7.982,0,0,0-6-2.628q-4.585,0-8.1,5.525a85.916,85.916,0,0,0,0,92.45q3.51,5.527,8.1,5.525h0Zm21.794-26.886q4.118,5.325,8.434,5.323a8.235,8.235,0,0,0,6.14-2.56,8.388,8.388,0,0,0,2.5-6.065,15.425,15.425,0,0,0-1.349-6.468,16.654,16.654,0,0,0-2.969-4.65A18.628,18.628,0,0,1,219.646,684a12.94,12.94,0,0,1-1.417-6,12.666,12.666,0,0,1,1.417-5.862,20.23,20.23,0,0,1,3.036-4.515,17.736,17.736,0,0,0,2.969-4.717A15.413,15.413,0,0,0,227,656.437a8.394,8.394,0,0,0-2.5-6.064,8.244,8.244,0,0,0-6.14-2.561q-4.317,0-8.434,5.324a43.043,43.043,0,0,0-6.545,12.331,33.548,33.548,0,0,0,0,25.066A42.991,42.991,0,0,0,209.93,702.864Z" transform="translate(-132 -609)"/>
</svg>
